<?xml version="1.0" encoding="UTF-8"?>
<svg width="107px" height="108px" viewBox="0 0 107 108" version="1.1" xmlns="http://www.w3.org/2000/svg" xmlns:xlink="http://www.w3.org/1999/xlink">
    <!-- Generator: Sketch 44.1 (41455) - http://www.bohemiancoding.com/sketch -->
    <title>sprite-callback</title>
    <desc>Created with Sketch.</desc>
    <defs></defs>
    <g id="Symbols" stroke="none" stroke-width="1" fill="none" fill-rule="evenodd">
        <g id="sprite-callback" fill-rule="nonzero" fill="#AE4030">
            <path d="M80.2666034,0 C65.5430345,0 53.5332069,12.4241156 53.5332069,27.6603344 C53.5332069,32.810943 54.9315862,37.6224775 57.3187931,41.7577067 L51.5020517,57.3440564 L68.1368621,52.2671596 C71.7840862,54.202093 75.9017414,55.3151405 80.2684483,55.3151405 C94.9901724,55.3169833 107,42.8910249 107,27.6603344 C107,12.4241156 94.9901724,0 80.2666034,0 Z M90.7507586,38.7078831 L66.2938793,38.7078831 C65.2755345,38.7078831 64.4490517,37.8823115 64.4490517,36.8650893 C64.4490517,35.8478671 65.2755345,35.0222955 66.2938793,35.0222955 L90.7526034,35.0222955 C91.7709483,35.0222955 92.597431,35.8478671 92.597431,36.8650893 C92.597431,37.8823115 91.7691034,38.7078831 90.7507586,38.7078831 Z M64.4490517,27.6032078 C64.4490517,26.5841429 65.2755345,25.7604141 66.2938793,25.7604141 L85.3177414,25.7604141 C86.3360862,25.7604141 87.162569,26.5841429 87.162569,27.6032078 C87.162569,28.6222728 86.3360862,29.4460016 85.3177414,29.4460016 L66.2938793,29.4460016 C65.2755345,29.4460016 64.4490517,28.62043 64.4490517,27.6032078 Z M96.1856207,20.2817882 L66.2938793,20.2817882 C65.2755345,20.2817882 64.4490517,19.4562166 64.4490517,18.4389944 C64.4490517,17.4199295 65.2755345,16.5962007 66.2938793,16.5962007 L96.1856207,16.5962007 C97.2039655,16.5962007 98.0304483,17.4199295 98.0304483,18.4389944 C98.0304483,19.4562166 97.2021207,20.2817882 96.1856207,20.2817882 Z" id="Shape"></path>
            <path d="M93.9017241,89.1119782 L76.6452069,71.8744853 C75.9367931,71.1650097 75.0863276,70.7982937 74.0845862,70.7651234 L70.3912414,70.6471846 C69.3027931,70.6103287 68.3527069,70.9862587 67.5852586,71.7565465 C66.9082069,72.431009 66.2920345,73.0465021 65.7072241,73.6288249 L92.1436034,100.03606 L94.0197931,98.1619383 C94.790931,97.3934933 95.1672759,96.4426118 95.1322241,95.3572062 L95.0123103,91.6716187 C94.9791034,90.6691389 94.6101379,89.8214538 93.9017241,89.1119782 Z" id="Shape"></path>
            <path d="M36.0922069,40.3000569 C36.8633448,39.5316119 37.2378448,38.5825731 37.2027931,37.4971676 L37.0828793,33.8078944 C37.0496724,32.8072574 36.6825517,31.9558867 35.9722931,31.2482539 L18.7194655,14.0126038 C18.0092069,13.3031282 17.1587414,12.9345694 16.1551552,12.9013992 L12.4655,12.7816176 C11.3752069,12.7466045 10.4269655,13.1225344 9.65582759,13.8928222 L7.78332759,15.7651007 L34.2178621,42.1723353 C34.8008276,41.5918553 35.417,40.9763622 36.0922069,40.3000569 Z" id="Shape"></path>
            <path d="M61.3478966,77.9759754 C60.4734483,78.8476169 59.3481034,79.2198612 58.1249828,79.042953 L55.0312069,78.5969969 C54.1862759,78.4735297 53.4926207,78.1270845 52.8893621,77.524491 L41.8609828,66.5082698 L41.8646724,66.506427 L30.3215862,54.9760664 C29.7164828,54.3734729 29.3696552,53.6824252 29.2478966,52.8365829 L28.8014483,49.7462177 C28.6243448,48.5262882 28.997,47.4003413 29.8696034,46.5250142 C30.3289655,46.0643158 30.934069,45.4598794 31.6111207,44.7798885 L5.17658621,18.3726539 L2.50527586,21.0410192 C-6.69303448,30.2291889 11.1981034,62.6660448 27.9233103,79.3728131 L27.9399138,79.3875555 L28.4675345,79.9201229 C45.1945862,96.6268911 77.6653966,114.501991 86.8618621,105.311978 L89.5368621,102.64177 L63.0986379,76.2326925 C62.4178966,76.9108406 61.8091034,77.5171198 61.3478966,77.9759754 Z" id="Shape"></path>
        </g>
    </g>
</svg>