<?xml version="1.0" encoding="UTF-8"?>
<svg width="35px" height="53px" viewBox="0 0 35 53" version="1.1" xmlns="http://www.w3.org/2000/svg" xmlns:xlink="http://www.w3.org/1999/xlink">
    <!-- Generator: Sketch 44.1 (41455) - http://www.bohemiancoding.com/sketch -->
    <title>sprite-work-1</title>
    <desc>Created with Sketch.</desc>
    <defs></defs>
    <g id="Symbols" stroke="none" stroke-width="1" fill="none" fill-rule="evenodd">
        <g id="sprite-work-1" fill-rule="nonzero" fill="#FFFFFF">
            <path d="M13.94253,0.199959063 C13.3384519,0.199959063 12.84878,0.694294479 12.84878,1.30412573 L12.84878,7.92912573 C12.84878,8.53895698 13.3384519,9.0332924 13.94253,9.0332924 C14.5466081,9.0332924 15.03628,8.53895698 15.03628,7.92912573 L15.03628,1.30412573 C15.03628,0.694294479 14.5466081,0.199959063 13.94253,0.199959063 Z M26.5890144,7.3770424 C26.3929597,7.37152156 26.1871706,7.42562573 25.97378,7.53228823 L20.2828894,10.8447882 C19.7597487,11.1497591 19.5877566,11.8176695 19.8897956,12.3457924 C20.1918347,12.8739153 20.8534441,13.0474903 21.3766394,12.7426299 L27.06753,9.4301299 C27.5907253,9.12510385 27.7626081,8.45724865 27.4606237,7.92912573 C27.2135456,7.5565799 26.9157722,7.3849924 26.5890144,7.3770424 Z M1.24474875,7.39415698 C0.90656125,7.42949031 0.627600312,7.63232573 0.42443625,7.92901531 C0.122451875,8.45713823 0.294334687,9.12499344 0.81753,9.43001948 L6.50842062,12.7425195 C7.03156125,13.0473799 7.69322531,12.8738049 7.99526437,12.345682 C8.29730344,11.8175591 8.12536594,11.1496486 7.60217062,10.8446778 L1.91128,7.53217781 C1.67541281,7.4075726 1.44769406,7.3731226 1.24474875,7.39415698 Z M13.94253,11.2416257 C11.5377019,11.2416257 9.56753,13.2305611 9.56753,15.6582869 L9.56753,29.7536479 C8.89017062,28.2756104 7.67463156,26.6779917 6.14956125,26.2859021 C4.07466281,25.717201 1.53306125,27.3928844 0.95424875,29.3395854 C0.659209687,30.4247052 0.851545625,31.6594948 1.43276437,33.1697188 C4.27399875,40.0667854 7.77230344,46.6885281 12.0284675,51.7162406 C12.2319597,51.9524219 12.5387566,52.0943625 12.84878,52.0957979 L27.614405,52.0957979 C27.8471003,52.0957979 28.0783737,52.0134823 28.2638191,51.8715417 C29.8381081,50.6941688 31.1069675,48.6886156 32.1603034,46.2989229 C33.2136394,43.9092302 34.0199519,41.1371094 34.43328,38.4317354 C34.8466628,35.7263615 34.8449675,33.1930167 34.2623269,30.9441052 C33.70003,28.7735896 32.1831628,26.9672281 29.9215612,26.6999646 C29.3884675,26.6999646 28.8254597,26.7446833 28.3492956,26.8552104 C28.0687487,26.1780802 27.6755456,25.600601 27.1871862,25.2507458 C26.3693894,24.6649136 25.5370456,24.4804074 24.8629675,24.4916147 C24.2157956,24.5026564 23.6256081,24.7404386 23.1026862,25.112725 C22.8673659,24.7502105 22.6253737,24.3729775 22.3165534,24.1465626 C21.5057566,23.55214 20.6431706,23.387448 19.958155,23.387448 C19.3915378,23.387448 18.8431316,23.5460616 18.31753,23.7670053 L18.31753,15.6582814 C18.2710456,12.7030952 15.9623581,11.2359337 13.94253,11.2416202 L13.94253,11.2416257 Z M13.94253,13.4499591 C15.1733269,13.4499591 16.13003,14.4157736 16.13003,15.6582869 L16.13003,26.1478813 C16.1229206,26.6483448 16.5013034,27.1228604 16.9845222,27.2348229 C17.4677409,27.3467854 18.0053191,27.0844906 18.2149909,26.6309542 C18.4566003,26.1238656 19.3668191,25.5957979 19.958155,25.5957979 C20.2236081,25.5957979 20.7161237,25.7071531 21.0348425,25.94085 C21.3536159,26.1745469 21.59878,26.448049 21.59878,27.2520479 C21.59878,27.7429052 21.9633269,28.2073177 22.436155,28.3217094 C22.9090378,28.436101 23.4453034,28.1894302 23.6666237,27.7523458 C24.1113425,26.8543823 24.3496159,26.7092396 24.8970925,26.6999646 C25.0486316,26.6944438 25.5794831,26.7992844 25.9224831,27.0450167 C26.2654831,27.290749 26.520655,27.5731948 26.520655,28.3562146 C26.5151862,28.7862323 26.7794909,29.2025031 27.1700691,29.3741458 C27.5607019,29.5457333 28.0569909,29.4627 28.3663581,29.1671146 C28.7811081,28.9606906 29.1878737,28.8980844 29.7164831,28.9082979 C31.0205066,29.0757448 31.6974284,29.9007229 32.1603034,31.5479188 C32.6274987,33.2102969 32.6448894,35.5864083 32.2628425,38.0866833 C31.8808503,40.5869583 31.12578,43.212501 30.1607644,45.4017875 C29.2557956,47.4550406 28.1474441,49.0585115 27.1700691,49.8874646 L13.3785925,49.8874646 C9.53947531,45.3153865 5.87328,38.2946531 3.48354562,32.3760438 C2.98605344,31.0833958 2.94120969,30.3411198 3.05632687,29.9262292 C3.46161594,28.858224 4.59572531,28.2552937 5.56850656,28.408 C6.73138156,28.8501083 7.01953,29.6334594 7.51674875,30.5300427 L9.68718625,34.9294292 C9.90850656,35.3665135 10.4447722,35.6131844 10.917655,35.4987927 C11.3905378,35.384401 11.7540456,34.9199885 11.75503,34.4291312 L11.75503,15.6582814 C11.75503,14.4157681 12.7117331,13.4499535 13.94253,13.4499535 L13.94253,13.4499591 Z" id="Shape"></path>
        </g>
    </g>
</svg>