<?xml version="1.0" encoding="UTF-8"?>
<svg width="48px" height="60px" viewBox="0 0 48 60" version="1.1" xmlns="http://www.w3.org/2000/svg" xmlns:xlink="http://www.w3.org/1999/xlink">
    <!-- Generator: Sketch 44.1 (41455) - http://www.bohemiancoding.com/sketch -->
    <title>sprite-work-3</title>
    <desc>Created with Sketch.</desc>
    <defs></defs>
    <g id="Symbols" stroke="none" stroke-width="1" fill="none" fill-rule="evenodd">
        <g id="sprite-work-3" fill-rule="nonzero" fill="#FFFFFF">
            <path d="M11.774,25.7253333 L36.226,25.7253333 C38.892,25.7253333 41.0606667,23.5566667 41.0606667,20.8913333 L41.0606667,4.83466667 C41.0606667,2.16866667 38.892,0 36.226,0 L11.774,0 C9.108,0 6.93933333,2.16866667 6.93933333,4.83466667 L6.93933333,20.8913333 C6.93933333,23.5566667 9.108,25.7253333 11.774,25.7253333 Z M36.226,23.7253333 L11.774,23.7253333 C11.4226667,23.7253333 11.0893333,23.6526667 10.7786667,23.5353333 L21.6686667,13.8206667 L22.12,14.198 C22.6626667,14.6533333 23.33,14.8806667 23.9986667,14.8806667 C24.6673333,14.8806667 25.3373333,14.6526667 25.886,14.1973333 L26.3326667,13.8226667 L37.2206667,23.5353333 C36.91,23.6526667 36.5773333,23.7253333 36.226,23.7253333 Z M39.0606667,4.83466667 L39.0606667,20.8913333 C39.0606667,21.3653333 38.9326667,21.806 38.726,22.1993333 L27.8806667,12.524 L38.6886667,3.45733333 C38.918,3.86733333 39.0606667,4.33266667 39.0606667,4.83466667 Z M11.774,2 L36.226,2 C36.542,2 36.84,2.064 37.124,2.15933333 L25.7546667,11.6966667 C25.754,11.6973333 25.7533333,11.698 25.7526667,11.698 L24.604,12.662 C24.2533333,12.954 23.7493333,12.9533333 23.4033333,12.664 L10.8753333,2.16 C11.1593333,2.064 11.458,2 11.774,2 Z M8.93933333,4.83466667 C8.93933333,4.33266667 9.08133333,3.868 9.31133333,3.45866667 L20.1186667,12.524 L9.274,22.198 C9.06733333,21.8053333 8.93933333,21.3646667 8.93933333,20.8913333 L8.93933333,4.83466667 Z" id="Shape"></path>
            <circle id="Oval" cx="37.664" cy="51.4293333" r="1.39333333"></circle>
            <path d="M47.672,23.104 C47.652,22.502 47.406,21.9353333 46.9793333,21.5093333 C46.524,21.054 45.8933333,20.7866667 45.2326667,20.816 C42.9993333,20.89 41.2393333,22.7686667 41.3073333,25.0033333 L41.422,28.5413333 L40.858,30.8226667 C40.1033333,30.8553333 39.3973333,31.154 38.862,31.6893333 L34.9413333,35.6126667 L33.6286667,35.84 C32.6906667,35.9986667 31.8386667,36.4386667 31.166,37.112 L28.436,39.8406667 C27.5993333,40.6793333 27.1226667,41.7913333 27.0946667,42.9733333 L26.9966667,47.3773333 C25.7186667,47.8613333 24.794,49.0846667 24.7786667,50.5246667 L24.7153333,56.446 C24.6953333,58.3273333 26.2093333,59.8746667 28.0906667,59.8946667 L37.9146667,60 L37.952,60 C39.8133333,60 41.344,58.486 41.364,56.6246667 L41.4273333,50.7033333 C41.4373333,49.7946667 41.0906667,48.9346667 40.452,48.2813333 C40.1273333,47.95 39.7466667,47.6946667 39.3326667,47.5206667 C39.478,46.5586667 39.9173333,45.686 40.6046667,44.9993333 L45.214,40.39 C46.422,39.182 47.184,37.5873333 47.3613333,35.8993333 L47.8506667,31.2566667 C47.8826667,31.09 47.9006667,30.9186667 47.9046667,30.7413333 L47.9066667,30.7226667 C47.908,30.712 47.906,30.702 47.9066667,30.692 C47.9066667,30.656 47.912,30.6226667 47.9113333,30.586 L47.672,23.104 Z M39.4273333,50.6813333 L39.364,56.6026667 C39.3553333,57.374 38.722,58 37.952,58 L37.952,59 L37.936,58 L28.112,57.8946667 C27.3333333,57.886 26.7066667,57.246 26.7146667,56.4673333 L26.778,50.546 C26.7866667,49.7753333 27.4193333,49.1486667 28.2053333,49.1486667 C28.2053333,49.1486667 28.2053333,49.1486667 28.206,49.1486667 L38.0306667,49.254 C38.4053333,49.258 38.7573333,49.4086667 39.022,49.68 C39.2866667,49.9513333 39.4306667,50.3066667 39.4273333,50.6813333 Z M45.8526667,31.1186667 C45.852,31.13 45.8493333,31.142 45.8493333,31.1533333 L45.3713333,35.6893333 C45.2426667,36.924 44.684,38.0913333 43.8,38.9753333 L39.1906667,43.5846667 C38.1953333,44.5793333 37.56,45.8426667 37.352,47.238 L37.3506667,47.2466667 L29.0026667,47.1573333 L29.0946667,43.0186667 C29.11,42.3533333 29.3786667,41.7266667 29.8506667,41.2546667 L32.58,38.526 C32.9533333,38.1533333 33.444,37.9 33.9666667,37.8113333 L35.5953333,37.5293333 C35.666,37.5173333 35.7333333,37.4966667 35.798,37.4713333 C35.802,37.47 35.8053333,37.4673333 35.8093333,37.4653333 C35.93,37.4146667 36.0373333,37.3426667 36.1273333,37.254 C36.1286667,37.2526667 36.1306667,37.252 36.132,37.2506667 L40.2766667,33.1033333 C40.6713333,32.71 41.3106667,32.71 41.7053333,33.1033333 C41.8946667,33.2926667 41.9986667,33.5466667 41.9986667,33.8173333 C41.9986667,34.0886667 41.8946667,34.342 41.7053333,34.5313333 L36.944,39.2933333 C36.5533333,39.684 36.5533333,40.3166667 36.944,40.7073333 C37.1393333,40.9026667 37.3953333,41 37.6513333,41 C37.9073333,41 38.1633333,40.9026667 38.3586667,40.7073333 L43.12,35.946 C43.6873333,35.3786667 43.9993333,34.6233333 43.9993333,33.8173333 C43.9993333,33.012 43.6866667,32.256 43.12,31.6893333 C43.0133333,31.5826667 42.894,31.4946667 42.7753333,31.406 L43.398,28.8866667 C43.4006667,28.876 43.4,28.8653333 43.4026667,28.854 C43.41,28.82 43.414,28.786 43.4173333,28.7513333 C43.4213333,28.7166667 43.4246667,28.682 43.4246667,28.6473333 C43.4246667,28.636 43.4273333,28.626 43.4266667,28.6146667 L43.3073333,24.9406667 C43.2726667,23.8066667 44.1666667,22.8526667 45.2886667,22.8153333 C45.4586667,22.8233333 45.5246667,22.882 45.5666667,22.9233333 C45.6353333,22.992 45.6713333,23.076 45.6746667,23.1693333 L45.9113333,30.5793333 L45.8526667,31.1186667 Z" id="Shape"></path>
            <path d="M21.004,47.382 L20.906,42.972 C20.878,41.7913333 20.4013333,40.6793333 19.564,39.8406667 L16.8346667,37.112 C16.1613333,36.4386667 15.31,35.9986667 14.3753333,35.84 L13.0593333,35.6126667 L9.13866667,31.6893333 C8.60333333,31.154 7.89733333,30.8553333 7.14266667,30.8226667 L6.57866667,28.5413333 L6.69333333,25.002 C6.762,22.7686667 5.00133333,20.8906667 2.75666667,20.816 C2.12133333,20.814 1.476,21.0553333 1.02133333,21.51 C0.594666667,21.936 0.348666667,22.502 0.328666667,23.1066667 L0.0893333333,30.5946667 C0.0886666667,30.634 0.094,30.6726667 0.0946666667,30.712 C0.0946666667,30.7153333 0.0946666667,30.7186667 0.0946666667,30.7226667 L0.0953333333,30.7293333 C0.0986666667,30.9093333 0.118,31.0853333 0.151333333,31.258 L0.640666667,35.898 C0.818,37.5866667 1.58,39.182 2.788,40.3893333 L7.39733333,44.9986667 C8.08533333,45.6866667 8.52466667,46.5593333 8.66933333,47.52 C8.25533333,47.694 7.87466667,47.9493333 7.55,48.2806667 C6.91133333,48.9333333 6.56466667,49.794 6.57466667,50.702 L6.638,56.6246667 C6.656,58.486 8.18666667,60 10.048,60 L19.91,59.8946667 C21.7906667,59.8746667 23.3053333,58.3273333 23.2853333,56.4466667 L23.222,50.524 C23.2066667,49.09 22.29,47.87 21.004,47.382 Z M4.20066667,38.9753333 C3.31666667,38.0913333 2.758,36.924 2.62933333,35.6886667 L2.15133333,31.1533333 C2.15066667,31.142 2.14866667,31.13 2.148,31.1186667 L2.09066667,30.5773333 L2.32733333,23.172 C2.33066667,23.076 2.36733333,22.992 2.43533333,22.924 C2.47733333,22.882 2.588,22.8186667 2.70133333,22.8153333 C3.83466667,22.8533333 4.72866667,23.8066667 4.694,24.9393333 L4.57466667,28.6153333 C4.574,28.6266667 4.57666667,28.6366667 4.57666667,28.648 C4.57666667,28.6826667 4.58,28.7173333 4.584,28.752 C4.58733333,28.7866667 4.59133333,28.8213333 4.59866667,28.8546667 C4.60066667,28.8653333 4.60066667,28.876 4.60333333,28.8873333 L5.226,31.4066667 C5.10733333,31.4946667 4.988,31.5833333 4.88133333,31.69 C4.314,32.2573333 4.002,33.0126667 4.002,33.818 C4.002,34.624 4.31466667,35.38 4.88133333,35.946 L9.64266667,40.708 C9.838,40.9033333 10.094,41.0006667 10.35,41.0006667 C10.606,41.0006667 10.862,40.9033333 11.0573333,40.708 C11.448,40.3173333 11.448,39.6846667 11.0573333,39.294 L6.296,34.5313333 C6.10666667,34.3426667 6.00266667,34.0893333 6.00266667,33.818 C6.00266667,33.5473333 6.10666667,33.2933333 6.296,33.104 C6.69066667,32.7106667 7.33,32.7106667 7.72466667,33.104 L11.8693333,37.2513333 C11.8706667,37.2526667 11.8726667,37.2533333 11.874,37.254 C11.9646667,37.344 12.0726667,37.4166667 12.1946667,37.4666667 C12.198,37.468 12.2,37.47 12.2033333,37.4713333 C12.2673333,37.4973333 12.3353333,37.5173333 12.406,37.53 L14.038,37.812 C14.5573333,37.9006667 15.0486667,38.1546667 15.4213333,38.5266667 L18.15,41.2553333 C18.6226667,41.728 18.8906667,42.354 18.9066667,43.0186667 L18.9986667,47.1586667 L10.65,47.248 L10.648,47.2366667 C10.4406667,45.8433333 9.80533333,44.5806667 8.81,43.5853333 L4.20066667,38.9753333 Z M19.8886667,57.8946667 L10.0633333,58 L10.0486667,59 L10.0486667,58 C9.27866667,58 8.64533333,57.374 8.63666667,56.6033333 L8.57333333,50.6806667 C8.56933333,50.306 8.71333333,49.9506667 8.978,49.68 C9.24266667,49.4093333 9.59533333,49.258 9.96933333,49.254 L19.81,49.1486667 C20.58,49.1486667 21.2133333,49.7746667 21.222,50.5453333 L21.2853333,56.468 C21.2933333,57.246 20.6666667,57.886 19.8886667,57.8946667 Z" id="Shape"></path>
            <circle id="Oval" cx="10.336" cy="51.4293333" r="1.39333333"></circle>
            <path d="M28.3486667,31.8973333 C27.958,31.5066667 27.3253333,31.5066667 26.9346667,31.8973333 L25,33.832 L25,29.278 C25,28.726 24.552,28.278 24,28.278 C23.448,28.278 23,28.726 23,29.278 L23,33.832 L21.0653333,31.8973333 C20.6746667,31.5066667 20.042,31.5066667 19.6513333,31.8973333 C19.2606667,32.288 19.2606667,32.9206667 19.6513333,33.3113333 L23.2933333,36.9533333 C23.386,37.046 23.4973333,37.12 23.62,37.1706667 C23.6253333,37.1726667 23.6306667,37.1733333 23.6353333,37.1753333 C23.7486667,37.22 23.8706667,37.246 24,37.246 C24.1293333,37.246 24.2513333,37.2193333 24.3646667,37.1753333 C24.37,37.1733333 24.3753333,37.1726667 24.38,37.1706667 C24.5033333,37.12 24.614,37.046 24.7066667,36.9533333 L28.3486667,33.3113333 C28.7393333,32.9206667 28.7393333,32.288 28.3486667,31.8973333 Z" id="Shape"></path>
        </g>
    </g>
</svg>