<?xml version="1.0" encoding="UTF-8"?>
<svg width="63px" height="32px" viewBox="0 0 63 32" version="1.1" xmlns="http://www.w3.org/2000/svg" xmlns:xlink="http://www.w3.org/1999/xlink">
    <!-- Generator: Sketch 44.1 (41455) - http://www.bohemiancoding.com/sketch -->
    <title>sprite-work-2</title>
    <desc>Created with Sketch.</desc>
    <defs></defs>
    <g id="Symbols" stroke="none" stroke-width="1" fill="none" fill-rule="evenodd">
        <g id="sprite-work-2" fill-rule="nonzero" fill="#FFFFFF">
            <path d="M61.5876923,1.28347826 C59.6630769,-0.341565217 57.7571538,1.60417391 56.4964615,2.89252174 C56.0942308,3.30226087 55.7148462,3.68904348 55.3638462,3.97147826 C54.1066154,4.98365217 52.6368462,5.79130435 50.7350769,6.51408696 C50.1099231,6.7533913 49.4307692,6.89669565 48.7121538,7.04834783 C47.4618462,7.312 46.1693077,7.58469565 45.1287692,8.40834783 C44.91,8.58017391 44.7092308,8.76452174 44.523,8.9586087 C43.6576154,8.40695652 42.6343846,8.08208696 41.5356923,8.08208696 L22.1552308,8.08208696 C21.0572308,8.08208696 20.0346923,8.40626087 19.17,8.95721739 C18.9844615,8.76382609 18.7850769,8.58017391 18.5683846,8.41043478 C17.5202308,7.584 16.2276923,7.31130435 14.9780769,7.04765217 C14.2594615,6.896 13.5803077,6.7533913 12.9516923,6.51269565 C11.0526923,5.79130435 9.58292308,4.98365217 8.325,3.97147826 C7.974,3.68904348 7.59461538,3.30226087 7.19238462,2.89252174 C5.93169231,1.60417391 4.02438462,-0.340173913 2.10184615,1.28278261 C1.03984615,2.17669565 0.529615385,3.47130435 0.737307692,4.74504348 C0.922153846,5.89565217 1.58815385,7.1826087 2.56846154,8.27617391 C3.24069231,9.024 4.03407692,9.65356522 4.87038462,10.146087 C4.72638462,10.2448696 4.58792308,10.3533913 4.46053846,10.48 C3.90323077,11.0344348 3.609,11.7961739 3.609,12.6845217 C3.609,15.1881739 6.81161538,16.3631304 8.44546154,16.4097391 C8.62961538,16.4153043 8.80684615,16.418087 8.97923077,16.418087 C9.64038462,16.418087 10.2156923,16.3777391 10.7418462,16.3005217 C10.7335385,16.3812174 10.7162308,16.4570435 10.7141538,16.5405217 C10.6982308,17.1735652 10.881,18.1245217 11.8467692,19.0587826 C12.4899231,19.682087 13.266,19.9172174 14.0559231,19.9172174 C14.9275385,19.9172174 15.8109231,19.6271304 16.5579231,19.2563478 L16.5579231,25.696 C16.5579231,27.0393043 17.0300769,28.2726957 17.8144615,29.2403478 C17.8296923,29.4629565 17.8996154,29.6841739 18.0588462,29.8636522 C18.2637692,30.0953043 18.5483077,30.2128696 18.8342308,30.2128696 C18.8342308,30.2128696 18.8342308,30.2128696 18.8342308,30.2128696 C19.764,30.9050435 20.9104615,31.3196522 22.1545385,31.3196522 L41.535,31.3196522 C42.7790769,31.3196522 43.9255385,30.9050435 44.8553077,30.2128696 C45.1405385,30.2121739 45.4250769,30.0953043 45.6293077,29.8636522 C45.7878462,29.6848696 45.8570769,29.4650435 45.873,29.2431304 C46.6587692,28.2747826 47.1323077,27.04 47.1323077,25.696 L47.1323077,19.2570435 C47.8813846,19.6285217 48.7640769,19.9186087 49.6343077,19.9186087 C50.4242308,19.9186087 51.1989231,19.682087 51.84,19.0594783 C52.8078462,18.1245217 52.992,17.1735652 52.9760769,16.5398261 C52.974,16.4563478 52.9573846,16.3805217 52.9483846,16.2998261 C53.4745385,16.3770435 54.0498462,16.4173913 54.711,16.4173913 C54.8833846,16.4173913 55.062,16.4146087 55.2454615,16.4090435 C56.8786154,16.3624348 60.0812308,15.1867826 60.0812308,12.6838261 C60.0812308,11.7954783 59.7863077,11.0337391 59.2296923,10.4793043 C59.1016154,10.352 58.9624615,10.2434783 58.8184615,10.1446957 C59.6540769,9.65217391 60.4474615,9.0226087 61.1203846,8.2733913 C62.1034615,7.17495652 62.7722308,5.888 62.955,4.74156522 C63.1578462,3.46573913 62.6455385,2.17321739 61.5876923,1.28347826 Z M16.5586154,13.7050435 L16.5586154,16.8062609 C15.8483077,17.3968696 14.0420769,18.2852174 13.2874615,17.554087 C12.7827692,17.0657391 12.7883077,16.7165217 12.7903846,16.6024348 C12.7993846,16.1050435 13.2203077,15.6166957 13.383,15.4692174 C13.4030769,15.4511304 13.4113846,15.4267826 13.4300769,15.4073043 C13.9548462,15.1318261 14.4858462,14.8062609 15.0784615,14.4166957 C15.5582308,14.1008696 15.6932308,13.453913 15.3789231,12.9725217 C15.0646154,12.4897391 14.4193846,12.3561739 13.9416923,12.6706087 C11.9921538,13.9533913 11.0755385,14.3895652 8.50430769,14.3227826 C7.41738462,14.2914783 5.68592308,13.5276522 5.68592308,12.6831304 C5.68592308,12.2469565 5.82023077,12.0633043 5.92130769,11.9631304 C6.41215385,11.4754783 7.70330769,11.488 8.31530769,11.4977391 C8.442,11.4991304 8.55415385,11.4998261 8.65176923,11.4991304 C8.667,11.4991304 8.68153846,11.4949565 8.69676923,11.4942609 C9.00138462,11.5575652 9.29838462,11.6153043 9.57946154,11.6667826 L9.87853846,11.7210435 C10.2198462,11.7850435 10.2454615,11.789913 10.809,11.8518261 C10.8470769,11.856 10.8844615,11.858087 10.9225385,11.858087 C11.4459231,11.858087 11.8952308,11.4622609 11.9533846,10.9273043 C12.0156923,10.3547826 11.6030769,9.84 11.0333077,9.7773913 C10.5625385,9.72591304 10.5410769,9.72243478 10.2551538,9.66956522 L9.94846154,9.61321739 C9.02353846,9.44626087 7.93938462,9.22226087 6.90853846,8.83756522 C5.90261538,8.46191304 4.90915385,7.76556522 4.11230769,6.87930435 C3.40476923,6.08834783 2.90976923,5.1666087 2.78861538,4.41043478 C2.69930769,3.86156522 2.93538462,3.30504348 3.438,2.88278261 C3.825,2.55513043 4.48130769,3.09982609 5.71430769,4.35756522 C6.14007692,4.79234783 6.58107692,5.24243478 7.02761538,5.6013913 C8.45930769,6.75408696 10.1083846,7.66469565 12.2157692,8.4653913 C12.9953077,8.76313043 13.7866154,8.9293913 14.5516154,9.09078261 C15.615,9.31478261 16.6188462,9.52626087 17.2876154,10.0542609 C17.4198462,10.157913 17.5389231,10.2685217 17.6510769,10.3826087 C16.9677692,11.314087 16.5586154,12.4612174 16.5586154,13.7050435 Z M22.1552308,10.1683478 L41.5356923,10.1683478 C42.0230769,10.1683478 42.4869231,10.2685217 42.9092308,10.4493913 L32.2843846,19.4052174 C32.0316923,19.6166957 31.6654615,19.6187826 31.4127692,19.4066087 L20.781,10.4493913 C21.2033077,10.2692174 21.6678462,10.1683478 22.1552308,10.1683478 Z M18.6355385,25.696 L18.6355385,13.7050435 C18.6355385,13.0135652 18.8411538,12.3728696 19.1838462,11.8274783 L28.1734615,19.4003478 L19.1423077,27.4956522 C18.828,26.9662609 18.6355385,26.3554783 18.6355385,25.696 Z M41.5356923,29.232 L22.1552308,29.232 C21.6318462,29.232 21.1389231,29.1088696 20.6916923,28.9022609 L29.7816923,20.7547826 L30.0807692,21.0066087 C30.591,21.4365217 31.2175385,21.6514783 31.8454615,21.6514783 C32.4726923,21.6514783 33.1013077,21.4365217 33.6163846,21.0066087 L33.9126923,20.7568696 L42.9999231,28.9022609 C42.552,29.1095652 42.0590769,29.232 41.5356923,29.232 Z M45.0560769,17.2278261 C45.0560769,17.2292174 45.0560769,17.229913 45.0560769,17.2313043 L45.0560769,25.696 C45.0560769,26.3561739 44.8636154,26.9676522 44.5486154,27.4970435 L35.5188462,19.4024348 L44.5070769,11.8267826 C44.8497692,12.3721739 45.0560769,13.0135652 45.0560769,13.7050435 L45.0560769,17.2278261 Z M60.9050769,4.41182609 C60.786,5.16034783 60.2889231,6.0813913 59.5786154,6.87582609 C58.7803846,7.76417391 57.7869231,8.46052174 56.7796154,8.83686957 C55.7556923,9.22156522 54.6722308,9.44486957 53.7493846,9.61182609 L53.4378462,9.66817391 C53.1498462,9.72104348 53.1276923,9.72452174 52.6562308,9.776 C52.0864615,9.8386087 51.6738462,10.3533913 51.7361538,10.925913 C51.7943077,11.4608696 52.2436154,11.8566957 52.767,11.8566957 C52.8050769,11.8566957 52.8424615,11.8546087 52.8805385,11.8504348 C53.442,11.7892174 53.4683077,11.7836522 53.8116923,11.7203478 L54.1156154,11.6653913 C54.3966923,11.6146087 54.693,11.5568696 54.9969231,11.4935652 C55.0114615,11.4942609 55.0246154,11.4984348 55.0391538,11.4984348 C55.1388462,11.4991304 55.2496154,11.4984348 55.3756154,11.4970435 C55.9883077,11.4866087 57.2794615,11.4747826 57.7696154,11.9624348 C57.8706923,12.0633043 58.005,12.2462609 58.005,12.6824348 C58.005,13.5276522 56.2735385,14.2914783 55.1873077,14.322087 C52.6056923,14.3895652 51.6994615,13.9526957 49.7499231,12.669913 C49.2722308,12.3554783 48.627,12.4883478 48.3126923,12.9718261 C47.9983846,13.4532174 48.1326923,14.1001739 48.6131538,14.416 C49.2050769,14.8055652 49.7360769,15.1311304 50.2601538,15.405913 C50.2781538,15.4246957 50.2864615,15.4497391 50.3058462,15.4671304 C50.4678462,15.613913 50.8922308,16.1029565 50.9005385,16.6003478 C50.9026154,16.7151304 50.9088462,17.0636522 50.3993077,17.5547826 C49.653,18.2817391 47.8599231,17.405913 47.133,16.8069565 L47.133,13.7036522 C47.133,12.4605217 46.7245385,11.3133913 46.0419231,10.381913 C46.1547692,10.2664348 46.2766154,10.1544348 46.4109231,10.0486957 C47.0727692,9.52417391 48.0759231,9.31269565 49.1386154,9.08869565 C49.9043077,8.928 50.6963077,8.76034783 51.4723846,8.464 C53.5804615,7.6626087 55.2295385,6.752 56.6612308,5.59930435 C57.1084615,5.24034783 57.5487692,4.79026087 57.9745385,4.35547826 C59.2082308,3.09704348 59.8638462,2.55165217 60.2522308,2.88208696 C60.7548462,3.30434783 60.9923077,3.86226087 60.9050769,4.41182609 Z" id="Shape"></path>
        </g>
    </g>
</svg>