<?xml version="1.0" encoding="UTF-8"?>
<svg width="125px" height="75px" viewBox="0 0 125 75" version="1.1" xmlns="http://www.w3.org/2000/svg" xmlns:xlink="http://www.w3.org/1999/xlink">
    <!-- Generator: Sketch 44.1 (41455) - http://www.bohemiancoding.com/sketch -->
    <title>stocks-icon-2-active</title>
    <desc>Created with Sketch.</desc>
    <defs></defs>
    <g id="Symbols" stroke="none" stroke-width="1" fill="none" fill-rule="evenodd">
        <g id="stocks-icon-2-active" fill="#FF5844">
            <rect id="Rectangle-path" fill-rule="nonzero" x="9.42307692" y="55.1923077" width="2.88461538" height="2.88461538"></rect>
            <rect id="Rectangle-path" fill-rule="nonzero" x="9.42307692" y="60.9615385" width="2.88461538" height="2.88461538"></rect>
            <path d="M119.423077,0 L47.3076923,0 C44.4230769,0 41.9230769,2.30769231 41.9230769,5.38461538 L41.9230769,31.7307692 L34.6153846,31.7307692 L34.0384615,31.7307692 L34.0384615,31.7307692 C30.1923077,31.9230769 26.7307692,33.8461538 24.6153846,36.9230769 C23.4615385,38.6538462 21.3461538,39.8076923 19.2307692,39.8076923 L17.3076923,39.8076923 C17.1153846,39.6153846 17.1153846,39.6153846 16.9230769,39.4230769 C15.9615385,38.4615385 14.8076923,38.0769231 13.4615385,38.0769231 C10.3846154,38.2692308 7.30769231,38.4615385 4.42307692,38.4615385 L4.42307692,41.3461538 C7.5,41.3461538 10.5769231,41.1538462 13.6538462,40.9615385 C14.2307692,40.9615385 14.6153846,41.1538462 15,41.3461538 C15.1923077,41.5384615 15.3846154,41.7307692 15.3846154,42.1153846 L15.3846154,66.5384615 C15.3846154,66.7307692 15.1923077,67.1153846 15,67.3076923 C14.6153846,67.6923077 14.2307692,67.6923077 13.6538462,67.6923077 C9.23076923,67.3076923 4.61538462,67.3076923 0.192307692,67.3076923 L0.192307692,70.1923077 C4.61538462,70.1923077 9.03846154,70.3846154 13.4615385,70.5769231 C13.6538462,70.5769231 13.6538462,70.5769231 13.8461538,70.5769231 C15,70.5769231 15.9615385,70.1923077 16.7307692,69.6153846 L16.7307692,69.6153846 C17.5,69.6153846 19.8076923,69.8076923 21.1538462,70.5769231 C21.5384615,70.7692308 21.9230769,70.9615385 22.3076923,71.1538462 C24.0384615,72.3076923 26.1538462,73.4615385 30.1923077,74.4230769 C32.1153846,74.8076923 36.5384615,75 40.9615385,75 C47.3076923,75 53.8461538,74.8076923 54.2307692,74.8076923 C57.3076923,74.8076923 59.6153846,72.3076923 59.6153846,69.4230769 C59.6153846,68.4615385 59.4230769,67.5 58.8461538,66.7307692 C61.5384615,66.3461538 63.4615385,64.0384615 63.4615385,61.3461538 C63.4615385,59.8076923 62.8846154,58.4615385 61.9230769,57.5 C63.2692308,56.5384615 64.0384615,55 64.0384615,53.2692308 C64.0384615,52.3076923 63.8461538,51.5384615 63.2692308,50.7692308 L119.423077,50.7692308 C122.307692,50.7692308 124.807692,48.4615385 124.807692,45.3846154 L124.807692,5.38461538 C124.807692,2.5 122.307692,0 119.423077,0 Z M30.7692308,71.5384615 C27.1153846,70.7692308 25.3846154,69.6153846 23.6538462,68.6538462 C23.2692308,68.4615385 22.8846154,68.2692308 22.5,67.8846154 C21.1538462,67.1153846 19.4230769,66.7307692 18.0769231,66.7307692 C18.0769231,66.7307692 18.0769231,66.5384615 18.0769231,66.5384615 L18.0769231,42.5 L19.2307692,42.5 C22.3076923,42.5 25.1923077,40.9615385 26.9230769,38.4615385 C28.6538462,35.9615385 31.5384615,34.4230769 34.6153846,34.4230769 L55.3846154,34.4230769 L58.0769231,34.4230769 C57.5,37.5 54.6153846,40 51.7307692,40 L37.8846154,40 L37.8846154,41.3461538 C37.8846154,41.7307692 37.6923077,51.9230769 27.6923077,53.8461538 L28.2692308,56.7307692 C38.0769231,55 40.1923077,46.3461538 40.5769231,42.8846154 L42.1153846,42.8846154 L42.1153846,45.1923077 C42.1153846,46.7307692 42.8846154,48.2692308 44.0384615,49.2307692 C43.0769231,50.1923077 42.5,51.5384615 42.5,53.0769231 C42.5,54.6153846 43.2692308,56.1538462 44.2307692,57.1153846 C43.0769231,58.0769231 42.5,59.6153846 42.5,61.1538462 C42.5,62.6923077 43.2692308,64.2307692 44.2307692,65.1923077 C43.0769231,66.1538462 42.5,67.6923077 42.5,69.2307692 C42.5,70.1923077 42.8846154,71.1538462 43.2692308,72.1153846 C37.8846154,72.1153846 32.5,72.1153846 30.7692308,71.5384615 Z M54.0384615,71.7307692 C54.0384615,71.7307692 54.0384615,71.7307692 54.0384615,71.7307692 L54.0384615,71.7307692 L47.6923077,71.9230769 C46.3461538,71.9230769 45.1923077,70.5769231 45.1923077,69.2307692 C45.1923077,67.8846154 46.3461538,66.7307692 47.6923077,66.7307692 L54.0384615,66.7307692 C55.3846154,66.7307692 56.5384615,67.8846154 56.5384615,69.2307692 C56.7307692,70.5769231 55.5769231,71.7307692 54.0384615,71.7307692 Z M58.0769231,63.8461538 L47.8846154,63.8461538 C46.5384615,63.8461538 45.3846154,62.6923077 45.3846154,61.3461538 C45.3846154,60 46.5384615,58.8461538 47.8846154,58.8461538 L58.0769231,58.8461538 C59.4230769,58.8461538 60.5769231,60 60.5769231,61.3461538 C60.7692308,62.6923077 59.6153846,63.8461538 58.0769231,63.8461538 Z M61.1538462,53.2692308 C61.1538462,54.6153846 60,55.7692308 58.6538462,55.7692308 L47.8846154,55.7692308 C46.5384615,55.7692308 45.3846154,54.6153846 45.3846154,53.2692308 C45.3846154,51.9230769 46.5384615,50.7692308 47.8846154,50.7692308 L58.6538462,50.7692308 C60,50.5769231 61.1538462,51.7307692 61.1538462,53.2692308 Z M121.923077,45.3846154 C121.923077,46.7307692 120.769231,47.8846154 119.423077,47.8846154 L47.3076923,47.8846154 C45.9615385,47.8846154 44.8076923,46.7307692 44.8076923,45.3846154 L44.8076923,43.0769231 L51.5384615,43.0769231 C56.7307692,43.0769231 60.9615385,38.4615385 60.9615385,33.2692308 L60.9615385,31.7307692 L55.1923077,31.7307692 L44.6153846,31.7307692 L44.6153846,5.38461538 C44.6153846,4.03846154 45.7692308,2.88461538 47.1153846,2.88461538 L119.230769,2.88461538 C120.576923,2.88461538 121.730769,4.03846154 121.730769,5.38461538 L121.730769,45.3846154 L121.923077,45.3846154 Z" id="Shape" fill-rule="nonzero"></path>
            <text id="5" font-family="Ubuntu-Medium, Ubuntu" font-size="28" font-weight="400">
                <tspan x="66.6666667" y="34.9791667">5</tspan>
            </text>
            <polygon id="Rectangle-path" fill-rule="nonzero" points="86.4583333 32.1061498 101.897817 16.6666667 104.029515 18.7983652 88.5900319 34.2378484"></polygon>
            <path d="M99.1987179,26.0416667 C96.7948718,26.0416667 94.7916667,28.0514706 94.7916667,30.4632353 C94.7916667,32.875 96.7948718,34.8848039 99.1987179,34.8848039 C101.602564,34.8848039 103.605769,32.875 103.605769,30.4632353 C103.605769,28.0514706 101.602564,26.0416667 99.1987179,26.0416667 Z M99.1987179,31.870098 C98.3974359,31.870098 97.7964744,31.2671569 97.7964744,30.4632353 C97.7964744,29.6593137 98.3974359,29.0563725 99.1987179,29.0563725 C100,29.0563725 100.600962,29.6593137 100.600962,30.4632353 C100.600962,31.2671569 100,31.870098 99.1987179,31.870098 Z" id="Shape" fill-rule="nonzero"></path>
            <path d="M89.8237179,25.5098039 C92.2275641,25.5098039 94.2307692,23.5 94.2307692,21.0882353 C94.2307692,18.6764706 92.2275641,16.6666667 89.8237179,16.6666667 C87.4198718,16.6666667 85.4166667,18.6764706 85.4166667,21.0882353 C85.4166667,23.5 87.4198718,25.5098039 89.8237179,25.5098039 Z M89.8237179,19.4803922 C90.625,19.4803922 91.2259615,20.0833333 91.2259615,20.8872549 C91.2259615,21.6911765 90.625,22.495098 89.8237179,22.495098 C89.0224359,22.495098 88.4214744,21.8921569 88.4214744,21.0882353 C88.4214744,20.2843137 89.0224359,19.4803922 89.8237179,19.4803922 Z" id="Shape" fill-rule="nonzero"></path>
        </g>
    </g>
</svg>