<?xml version="1.0" encoding="UTF-8"?>
<svg width="112px" height="109px" viewBox="0 0 112 109" version="1.1" xmlns="http://www.w3.org/2000/svg" xmlns:xlink="http://www.w3.org/1999/xlink">
    <!-- Generator: Sketch 44.1 (41455) - http://www.bohemiancoding.com/sketch -->
    <title>stocks-icon-4</title>
    <desc>Created with Sketch.</desc>
    <defs></defs>
    <g id="Symbols" stroke="none" stroke-width="1" fill="none" fill-rule="evenodd">
        <g id="stocks-icon-4" fill-rule="nonzero" fill="#FFFFFF">
            <path d="M106.658462,65.4 L93.7353846,27.5095238 L95.1138462,27.6825397 C95.2861538,27.6825397 95.6307692,27.6825397 95.8030769,27.6825397 C97.6984615,27.6825397 99.5938462,26.2984127 99.9384615,24.2222222 C100.283077,21.9730159 98.9046154,19.7238095 96.6646154,19.3777778 L65.6492308,13.8412698 C64.7876923,9.86190476 61.5138462,6.74761905 57.3784615,6.22857143 L57.3784615,1.73015873 C57.3784615,1.03809524 56.8615385,0.519047619 56.1723077,0.519047619 C55.4830769,0.519047619 54.7938462,1.03809524 54.7938462,1.73015873 L54.7938462,6.05555556 C51.8646154,6.4015873 49.4523077,8.13174603 47.9015385,10.5539683 L17.0584615,5.01746032 C16.0246154,4.84444444 14.8184615,5.01746032 13.9569231,5.70952381 C13.0953846,6.4015873 12.4061538,7.26666667 12.2338462,8.47777778 C12.0615385,9.51587302 12.2338462,10.7269841 12.9230769,11.5920635 C13.6123077,12.4571429 14.4738462,13.1492063 15.68,13.3222222 L18.7815385,13.8412698 L5.34153846,52.4238095 L0,52.4238095 L0,53.6349206 C0,64.8809524 9.13230769,73.8777778 20.16,73.8777778 C31.36,73.8777778 40.32,64.7079365 40.32,53.6349206 L40.32,52.4238095 L34.9784615,52.4238095 L22.0553846,14.3603175 L46.6953846,18.8587302 C47.5569231,21.4539683 49.4523077,23.5301587 51.6923077,24.7412698 L48.4184615,100.003175 L32.5661538,100.003175 L28.7753846,108.480952 L83.2246154,108.480952 L79.4338462,100.003175 L63.5815385,100.003175 L60.3076923,24.7412698 C61.6861538,24.0492063 62.8923077,23.184127 63.7538462,21.9730159 L90.1169231,26.8174603 L76.8492308,65.4 L71.5076923,65.4 L71.5076923,66.6111111 C71.5076923,77.8571429 80.64,86.8539683 91.6676923,86.8539683 C102.867692,87.0269841 112,77.8571429 112,66.784127 L112,65.5730159 L106.658462,65.5730159 L106.658462,65.4 Z M91.84,52.0777778 C88.5661538,52.0777778 85.6369231,53.115873 83.2246154,55.0190476 L91.84,29.931746 L100.455385,55.0190476 C98.0430769,53.115873 94.9415385,52.0777778 91.84,52.0777778 Z M103.556923,66.4380952 C103.556923,73.0126984 98.2153846,78.2031746 91.84,78.2031746 C85.4646154,78.2031746 80.1230769,72.8396825 80.1230769,66.4380952 C80.1230769,59.8634921 85.4646154,54.6730159 91.84,54.6730159 C98.2153846,54.6730159 103.556923,59.8634921 103.556923,66.4380952 Z M20.16,39.1015873 C16.8861538,39.1015873 13.9569231,40.1396825 11.5446154,42.0428571 L20.16,16.9555556 L28.7753846,42.0428571 C26.3630769,40.1396825 23.4338462,39.1015873 20.16,39.1015873 Z M31.8769231,53.4619048 C31.8769231,60.0365079 26.5353846,65.2269841 20.16,65.2269841 C13.6123077,65.2269841 8.44307692,59.8634921 8.44307692,53.4619048 C8.44307692,46.8873016 13.7846154,41.6968254 20.16,41.6968254 C26.7076923,41.6968254 31.8769231,46.8873016 31.8769231,53.4619048 Z M20.16,71.4555556 C10.8553846,71.4555556 3.27384615,64.1888889 2.58461538,55.0190476 L6.03076923,55.0190476 C6.89230769,62.1126984 12.9230769,67.8222222 20.16,67.8222222 C27.5692308,67.8222222 33.6,62.2857143 34.2892308,55.0190476 L37.7353846,55.0190476 C37.0461538,64.1888889 29.4646154,71.4555556 20.16,71.4555556 Z M16.0246154,10.7269841 C15.5076923,10.5539683 15.1630769,10.3809524 14.9907692,10.0349206 C14.6461538,9.68888889 14.6461538,9.16984127 14.6461538,8.82380952 C14.6461538,8.47777778 14.9907692,7.95873016 15.3353846,7.78571429 C15.68,7.61269841 16.1969231,7.43968254 16.5415385,7.61269841 L46.6953846,13.1492063 C46.3507692,14.0142857 46.0061538,16.0904762 46.3507692,16.2634921 L16.0246154,10.7269841 Z M77.8830769,102.598413 L79.4338462,105.885714 L32.9107692,105.885714 L34.4615385,102.598413 L48.5907692,102.598413 L63.7538462,102.598413 L77.8830769,102.598413 Z M61.1692308,100.003175 L51.1753846,100.003175 L54.4492308,25.6063492 C54.9661538,25.7793651 55.6553846,25.7793651 56.1723077,25.7793651 C56.6892308,25.7793651 57.3784615,25.7793651 57.8953846,25.6063492 L61.1692308,100.003175 Z M56.1723077,23.184127 C52.2092308,23.184127 48.9353846,19.8968254 48.9353846,15.9174603 C48.9353846,11.9380952 52.2092308,8.65079365 56.1723077,8.65079365 C60.1353846,8.65079365 63.4092308,11.9380952 63.4092308,15.9174603 C63.4092308,19.8968254 60.1353846,23.184127 56.1723077,23.184127 Z M65.8215385,16.6095238 L95.9753846,22.1460317 C96.8369231,22.3190476 97.3538462,23.184127 97.1815385,24.0492063 C97.1815385,24.3952381 96.6646154,25.4333333 95.2861538,25.2603175 L64.96,19.7238095 C65.6492308,18.6857143 65.8215385,17.647619 65.8215385,16.6095238 Z M91.84,84.431746 C82.5353846,84.431746 74.9538462,77.1650794 74.2646154,67.9952381 L77.7107692,67.9952381 C78.5723077,75.0888889 84.6030769,80.7984127 91.84,80.7984127 C99.0769231,80.7984127 105.28,75.2619048 105.969231,67.9952381 L109.415385,67.9952381 C108.726154,77.1650794 101.144615,84.431746 91.84,84.431746 Z" id="Shape"></path>
            <path d="M90.4615385,56.9222222 L90.4615385,58.9984127 C89.7723077,59.1714286 88.9107692,59.5174603 88.3938462,60.0365079 C87.36,60.9015873 86.8430769,61.9396825 86.8430769,63.1507937 C86.8430769,64.3619048 87.36,65.4 88.3938462,66.2650794 C89.2553846,67.1301587 90.4615385,67.4761905 91.6676923,67.4761905 C92.3569231,67.4761905 92.8738462,67.6492063 93.3907692,67.9952381 C93.7353846,68.3412698 93.9076923,68.6873016 93.9076923,69.2063492 C93.9076923,69.7253968 93.7353846,70.0714286 93.3907692,70.4174603 C92.5292308,71.1095238 90.9784615,71.1095238 90.1169231,70.4174603 C89.7723077,70.0714286 89.6,69.7253968 89.6,69.2063492 L87.0153846,69.2063492 C87.0153846,70.4174603 87.5323077,71.4555556 88.5661538,72.3206349 C89.0830769,72.8396825 89.9446154,73.1857143 90.6338462,73.3587302 L90.6338462,75.4349206 L93.0461538,75.4349206 L93.0461538,73.3587302 C93.7353846,73.1857143 94.5969231,72.8396825 95.1138462,72.3206349 C96.1476923,71.4555556 96.6646154,70.4174603 96.6646154,69.2063492 C96.6646154,67.9952381 96.1476923,66.9571429 95.1138462,66.0920635 C94.2523077,65.2269841 93.0461538,64.8809524 91.84,64.8809524 C91.1507692,64.8809524 90.6338462,64.7079365 90.1169231,64.3619048 C89.7723077,64.015873 89.6,63.6698413 89.6,63.1507937 C89.6,62.631746 89.7723077,62.2857143 90.1169231,61.9396825 C90.9784615,61.247619 92.5292308,61.247619 93.3907692,61.9396825 C93.7353846,62.2857143 93.9076923,62.631746 93.9076923,63.1507937 L96.4923077,63.1507937 C96.4923077,61.9396825 95.9753846,60.9015873 94.9415385,60.0365079 C94.4246154,59.5174603 93.5630769,59.1714286 92.8738462,58.9984127 L92.8738462,56.9222222 L90.4615385,56.9222222 Z" id="Shape"></path>
            <polygon id="Rectangle-path" points="13.7777778 58.5281474 25.3059252 47 26.8975934 48.5916682 15.369446 60.1198157"></polygon>
            <path d="M23.2905983,54 C21.4957265,54 20,55.5006536 20,57.3014379 C20,59.1022222 21.4957265,60.6028758 23.2905983,60.6028758 C25.0854701,60.6028758 26.5811966,59.1022222 26.5811966,57.3014379 C26.5811966,55.5006536 25.0854701,54 23.2905983,54 Z M23.2905983,58.3518954 C22.6923077,58.3518954 22.2435897,57.9016993 22.2435897,57.3014379 C22.2435897,56.7011765 22.6923077,56.2509804 23.2905983,56.2509804 C23.8888889,56.2509804 24.3376068,56.7011765 24.3376068,57.3014379 C24.3376068,57.9016993 23.8888889,58.3518954 23.2905983,58.3518954 Z" id="Shape"></path>
            <path d="M16.2905983,53.6028758 C18.0854701,53.6028758 19.5811966,52.1022222 19.5811966,50.3014379 C19.5811966,48.5006536 18.0854701,47 16.2905983,47 C14.4957265,47 13,48.5006536 13,50.3014379 C13,52.1022222 14.4957265,53.6028758 16.2905983,53.6028758 Z M16.2905983,49.100915 C16.8888889,49.100915 17.3376068,49.5511111 17.3376068,50.1513725 C17.3376068,50.751634 16.8888889,51.3518954 16.2905983,51.3518954 C15.6923077,51.3518954 15.2435897,50.9016993 15.2435897,50.3014379 C15.2435897,49.7011765 15.6923077,49.100915 16.2905983,49.100915 Z" id="Shape"></path>
        </g>
    </g>
</svg>