<?xml version="1.0" encoding="UTF-8"?>
<svg width="82px" height="80px" viewBox="0 0 82 80" version="1.1" xmlns="http://www.w3.org/2000/svg" xmlns:xlink="http://www.w3.org/1999/xlink">
    <!-- Generator: Sketch 44.1 (41455) - http://www.bohemiancoding.com/sketch -->
    <title>stocks-icon-4-active</title>
    <desc>Created with Sketch.</desc>
    <defs></defs>
    <g id="Symbols" stroke="none" stroke-width="1" fill="none" fill-rule="evenodd">
        <g id="stocks-icon-4-active" fill-rule="nonzero" fill="#FF5844">
            <path d="M78.0892308,48 L68.6276923,20.1904762 L69.6369231,20.3174603 C69.7630769,20.3174603 70.0153846,20.3174603 70.1415385,20.3174603 C71.5292308,20.3174603 72.9169231,19.3015873 73.1692308,17.7777778 C73.4215385,16.1269841 72.4123077,14.4761905 70.7723077,14.2222222 L48.0646154,10.1587302 C47.4338462,7.23809524 45.0369231,4.95238095 42.0092308,4.57142857 L42.0092308,1.26984127 C42.0092308,0.761904762 41.6307692,0.380952381 41.1261538,0.380952381 C40.6215385,0.380952381 40.1169231,0.761904762 40.1169231,1.26984127 L40.1169231,4.44444444 C37.9723077,4.6984127 36.2061538,5.96825397 35.0707692,7.74603175 L12.4892308,3.68253968 C11.7323077,3.55555556 10.8492308,3.68253968 10.2184615,4.19047619 C9.58769231,4.6984127 9.08307692,5.33333333 8.95692308,6.22222222 C8.83076923,6.98412698 8.95692308,7.87301587 9.46153846,8.50793651 C9.96615385,9.14285714 10.5969231,9.65079365 11.48,9.77777778 L13.7507692,10.1587302 L3.91076923,38.4761905 L0,38.4761905 L0,39.3650794 C0,47.6190476 6.68615385,54.2222222 14.76,54.2222222 C22.96,54.2222222 29.52,47.4920635 29.52,39.3650794 L29.52,38.4761905 L25.6092308,38.4761905 L16.1476923,10.5396825 L34.1876923,13.8412698 C34.8184615,15.7460317 36.2061538,17.2698413 37.8461538,18.1587302 L35.4492308,73.3968254 L23.8430769,73.3968254 L21.0676923,79.6190476 L60.9323077,79.6190476 L58.1569231,73.3968254 L46.5507692,73.3968254 L44.1538462,18.1587302 C45.1630769,17.6507937 46.0461538,17.015873 46.6769231,16.1269841 L65.9784615,19.6825397 L56.2646154,48 L52.3538462,48 L52.3538462,48.8888889 C52.3538462,57.1428571 59.04,63.7460317 67.1138462,63.7460317 C75.3138462,63.8730159 82,57.1428571 82,49.015873 L82,48.1269841 L78.0892308,48.1269841 L78.0892308,48 Z M67.24,38.2222222 C64.8430769,38.2222222 62.6984615,38.984127 60.9323077,40.3809524 L67.24,21.968254 L73.5476923,40.3809524 C71.7815385,38.984127 69.5107692,38.2222222 67.24,38.2222222 Z M75.8184615,48.7619048 C75.8184615,53.5873016 71.9076923,57.3968254 67.24,57.3968254 C62.5723077,57.3968254 58.6615385,53.4603175 58.6615385,48.7619048 C58.6615385,43.9365079 62.5723077,40.1269841 67.24,40.1269841 C71.9076923,40.1269841 75.8184615,43.9365079 75.8184615,48.7619048 Z M14.76,28.6984127 C12.3630769,28.6984127 10.2184615,29.4603175 8.45230769,30.8571429 L14.76,12.4444444 L21.0676923,30.8571429 C19.3015385,29.4603175 17.1569231,28.6984127 14.76,28.6984127 Z M23.3384615,39.2380952 C23.3384615,44.0634921 19.4276923,47.8730159 14.76,47.8730159 C9.96615385,47.8730159 6.18153846,43.9365079 6.18153846,39.2380952 C6.18153846,34.4126984 10.0923077,30.6031746 14.76,30.6031746 C19.5538462,30.6031746 23.3384615,34.4126984 23.3384615,39.2380952 Z M14.76,52.4444444 C7.94769231,52.4444444 2.39692308,47.1111111 1.89230769,40.3809524 L4.41538462,40.3809524 C5.04615385,45.5873016 9.46153846,49.7777778 14.76,49.7777778 C20.1846154,49.7777778 24.6,45.7142857 25.1046154,40.3809524 L27.6276923,40.3809524 C27.1230769,47.1111111 21.5723077,52.4444444 14.76,52.4444444 Z M11.7323077,7.87301587 C11.3538462,7.74603175 11.1015385,7.61904762 10.9753846,7.36507937 C10.7230769,7.11111111 10.7230769,6.73015873 10.7230769,6.47619048 C10.7230769,6.22222222 10.9753846,5.84126984 11.2276923,5.71428571 C11.48,5.58730159 11.8584615,5.46031746 12.1107692,5.58730159 L34.1876923,9.65079365 C33.9353846,10.2857143 33.6830769,11.8095238 33.9353846,11.9365079 L11.7323077,7.87301587 Z M57.0215385,75.3015873 L58.1569231,77.7142857 L24.0953846,77.7142857 L25.2307692,75.3015873 L35.5753846,75.3015873 L46.6769231,75.3015873 L57.0215385,75.3015873 Z M44.7846154,73.3968254 L37.4676923,73.3968254 L39.8646154,18.7936508 C40.2430769,18.9206349 40.7476923,18.9206349 41.1261538,18.9206349 C41.5046154,18.9206349 42.0092308,18.9206349 42.3876923,18.7936508 L44.7846154,73.3968254 Z M41.1261538,17.015873 C38.2246154,17.015873 35.8276923,14.6031746 35.8276923,11.6825397 C35.8276923,8.76190476 38.2246154,6.34920635 41.1261538,6.34920635 C44.0276923,6.34920635 46.4246154,8.76190476 46.4246154,11.6825397 C46.4246154,14.6031746 44.0276923,17.015873 41.1261538,17.015873 Z M48.1907692,12.1904762 L70.2676923,16.2539683 C70.8984615,16.3809524 71.2769231,17.015873 71.1507692,17.6507937 C71.1507692,17.9047619 70.7723077,18.6666667 69.7630769,18.5396825 L47.56,14.4761905 C48.0646154,13.7142857 48.1907692,12.952381 48.1907692,12.1904762 Z M67.24,61.968254 C60.4276923,61.968254 54.8769231,56.6349206 54.3723077,49.9047619 L56.8953846,49.9047619 C57.5261538,55.1111111 61.9415385,59.3015873 67.24,59.3015873 C72.5384615,59.3015873 77.08,55.2380952 77.5846154,49.9047619 L80.1076923,49.9047619 C79.6030769,56.6349206 74.0523077,61.968254 67.24,61.968254 Z" id="Shape"></path>
            <polygon id="Rectangle-path" points="10.0858674 42.9460511 18.5261182 34.5058003 19.6943151 35.6739971 11.2540643 44.1142479"></polygon>
            <path d="M17.0520452,39.6330275 C15.7379426,39.6330275 14.6428571,40.7344247 14.6428571,42.0561012 C14.6428571,43.3777778 15.7379426,44.4791749 17.0520452,44.4791749 C18.3661477,44.4791749 19.4612332,43.3777778 19.4612332,42.0561012 C19.4612332,40.7344247 18.3661477,39.6330275 17.0520452,39.6330275 Z M17.0520452,42.8270792 C16.614011,42.8270792 16.2854853,42.4966601 16.2854853,42.0561012 C16.2854853,41.6155424 16.614011,41.2851232 17.0520452,41.2851232 C17.4900794,41.2851232 17.818605,41.6155424 17.818605,42.0561012 C17.818605,42.4966601 17.4900794,42.8270792 17.0520452,42.8270792 Z" id="Shape"></path>
            <path d="M11.9270452,39.3415602 C13.2411477,39.3415602 14.3362332,38.2401631 14.3362332,36.9184865 C14.3362332,35.59681 13.2411477,34.4954128 11.9270452,34.4954128 C10.6129426,34.4954128 9.51785714,35.59681 9.51785714,36.9184865 C9.51785714,38.2401631 10.6129426,39.3415602 11.9270452,39.3415602 Z M11.9270452,36.0373688 C12.3650794,36.0373688 12.693605,36.367788 12.693605,36.8083468 C12.693605,37.2489057 12.3650794,37.6894645 11.9270452,37.6894645 C11.489011,37.6894645 11.1604853,37.3590454 11.1604853,36.9184865 C11.1604853,36.4779277 11.489011,36.0373688 11.9270452,36.0373688 Z" id="Shape"></path>
            <path d="M66.2307692,41.7777778 L66.2307692,43.3015873 C65.7261538,43.4285714 65.0953846,43.6825397 64.7169231,44.0634921 C63.96,44.6984127 63.5815385,45.4603175 63.5815385,46.3492063 C63.5815385,47.2380952 63.96,48 64.7169231,48.6349206 C65.3476923,49.2698413 66.2307692,49.5238095 67.1138462,49.5238095 C67.6184615,49.5238095 67.9969231,49.6507937 68.3753846,49.9047619 C68.6276923,50.1587302 68.7538462,50.4126984 68.7538462,50.7936508 C68.7538462,51.1746032 68.6276923,51.4285714 68.3753846,51.6825397 C67.7446154,52.1904762 66.6092308,52.1904762 65.9784615,51.6825397 C65.7261538,51.4285714 65.6,51.1746032 65.6,50.7936508 L63.7076923,50.7936508 C63.7076923,51.6825397 64.0861538,52.4444444 64.8430769,53.0793651 C65.2215385,53.4603175 65.8523077,53.7142857 66.3569231,53.8412698 L66.3569231,55.3650794 L68.1230769,55.3650794 L68.1230769,53.8412698 C68.6276923,53.7142857 69.2584615,53.4603175 69.6369231,53.0793651 C70.3938462,52.4444444 70.7723077,51.6825397 70.7723077,50.7936508 C70.7723077,49.9047619 70.3938462,49.1428571 69.6369231,48.5079365 C69.0061538,47.8730159 68.1230769,47.6190476 67.24,47.6190476 C66.7353846,47.6190476 66.3569231,47.4920635 65.9784615,47.2380952 C65.7261538,46.984127 65.6,46.7301587 65.6,46.3492063 C65.6,45.968254 65.7261538,45.7142857 65.9784615,45.4603175 C66.6092308,44.952381 67.7446154,44.952381 68.3753846,45.4603175 C68.6276923,45.7142857 68.7538462,45.968254 68.7538462,46.3492063 L70.6461538,46.3492063 C70.6461538,45.4603175 70.2676923,44.6984127 69.5107692,44.0634921 C69.1323077,43.6825397 68.5015385,43.4285714 67.9969231,43.3015873 L67.9969231,41.7777778 L66.2307692,41.7777778 Z" id="Shape"></path>
        </g>
    </g>
</svg>