<?xml version="1.0" encoding="UTF-8"?>
<svg width="46px" height="44px" viewBox="0 0 46 44" version="1.1" xmlns="http://www.w3.org/2000/svg" xmlns:xlink="http://www.w3.org/1999/xlink">
    <!-- Generator: Sketch 44.1 (41455) - http://www.bohemiancoding.com/sketch -->
    <title>sprite-facts-5</title>
    <desc>Created with Sketch.</desc>
    <defs></defs>
    <g id="Symbols" stroke="none" stroke-width="1" fill="none" fill-rule="evenodd">
        <g id="sprite-facts-5" fill-rule="nonzero" fill="#FFFFFF">
            <path d="M30.7562455,14.4573082 C29.9664315,14.4573082 29.1200702,13.8307253 28.8701497,13.0708841 L25.2823931,2.16291869 C24.3399042,-0.682507699 21.6651954,-0.640428471 20.7241476,2.20354691 L17.136391,13.0754657 C16.8845431,13.8386362 16.0492596,14.4573082 15.2502953,14.4573082 L2.82982746,14.4573082 C-0.150397557,14.4573082 -1.00641964,16.9225705 1.37574282,18.7203692 L11.3227141,26.195704 C11.9552391,26.6710585 12.264939,27.6689639 12.0127424,28.429734 L8.13745258,40.119833 C7.17911136,43.0145936 9.37825226,44.5497599 11.7431213,42.6445866 L21.8817891,34.4732673 C22.5007681,33.9743974 23.5156019,33.9830842 24.1233106,34.4724007 L34.2619783,42.6358806 C36.622524,44.5381519 38.8274294,42.9942795 37.8690882,40.1009699 L33.9925089,28.3926924 C33.7409921,27.6330467 34.0572903,26.6282535 34.6825344,26.1607218 L44.6307979,18.7218203 C47.0043137,16.9283746 46.1468505,14.4573082 43.1767133,14.4573082 L30.7562455,14.4573082 L30.7562455,14.4573082 Z M24.1263069,30.7543465 C23.505673,30.2538672 22.5084052,30.2462404 21.8789335,30.7533542 L12.6260715,38.2076278 C12.0055153,38.7075592 11.7068021,38.4955844 11.9605935,37.7289836 L15.4022475,27.3331403 C15.6552704,26.5688611 15.3321648,25.5578762 14.7064885,25.0942471 L5.42195715,18.2143671 C4.78467727,17.7421398 4.90932782,17.3593239 5.71028802,17.3593239 L17.314798,17.3593239 C18.1113186,17.3593239 18.9617966,16.7349166 19.2113716,15.9738866 L22.5482044,5.79886909 C22.7991324,5.03371324 23.2073202,5.03783914 23.4568952,5.79886909 L26.7937281,15.9738866 C27.0446561,16.7390426 27.8893415,17.3593239 28.6903016,17.3593239 L40.2948116,17.3593239 C41.0913322,17.3593239 41.2088844,17.7525894 40.5832859,18.2184112 L31.2999089,25.1308312 C30.6627082,25.6052921 30.3505018,26.6057389 30.6042932,27.3705652 L34.0459473,37.742344 C34.2989701,38.504854 34.0098789,38.7244623 33.3803284,38.2167925 L24.1263069,30.7543465 L24.1263069,30.7543465 Z" id="Shape"></path>
        </g>
    </g>
</svg>