<?xml version="1.0" encoding="UTF-8"?>
<svg width="65px" height="40px" viewBox="0 0 65 40" version="1.1" xmlns="http://www.w3.org/2000/svg" xmlns:xlink="http://www.w3.org/1999/xlink">
    <!-- Generator: Sketch 44.1 (41455) - http://www.bohemiancoding.com/sketch -->
    <title>sprite-facts-2</title>
    <desc>Created with Sketch.</desc>
    <defs></defs>
    <g id="Symbols" stroke="none" stroke-width="1" fill="none" fill-rule="evenodd">
        <g id="sprite-facts-2" fill-rule="nonzero" fill="#FFFFFF">
            <path d="M64.6716916,16.6183184 C64.4828727,15.9065211 63.7544474,15.4824809 63.0442111,15.6721488 L55.0904303,17.7919159 C54.8474775,17.8565853 54.6279106,17.9889622 54.4572806,18.1734218 L49.9235151,23.0663229 C49.900021,23.0503183 49.8815614,23.029214 49.8576342,23.0136434 L33.3459353,12.2893756 C32.3949115,11.6717612 31.1805806,11.6153382 30.1784544,12.1413738 L22.5040044,16.1612924 C22.3394374,16.2485309 22.1354611,16.2311701 21.9869177,16.1187581 C21.8466027,16.0124226 21.8089255,15.8704971 21.7989649,15.7958453 C21.7890042,15.7207593 21.7881381,15.5744937 21.8951066,15.4347383 L25.5064851,10.7264597 C26.0772726,9.98211071 26.8988081,9.47777621 27.819517,9.30633731 L32.0571161,8.51728398 C34.3601873,8.08803545 36.6896758,8.11537895 38.9814873,8.5980122 L43.4858581,9.54591782 C44.0973542,9.67569062 44.7292048,9.61926763 45.3095232,9.38402734 C45.4095626,9.34366319 45.5044052,9.29114646 45.5914524,9.22821315 L54.5477924,2.73176074 C55.1432649,2.29990815 55.2762177,1.46615045 54.8457452,0.869803149 C54.4144065,0.273021899 53.5824773,0.138908878 52.9878708,0.571195504 L44.206055,6.94134725 C44.1493228,6.95002768 44.0904251,6.94872565 44.0328266,6.93657299 L39.5284558,5.98866737 C36.8936523,5.4344203 34.2168408,5.40230263 31.5707774,5.8957865 L27.3336113,6.68483983 C26.1651859,6.90228521 25.0914948,7.43553645 24.2176659,8.21721137 L20.4122716,7.6114784 C20.3910511,7.60800627 20.3698306,7.60323201 20.3494763,7.5967216 L11.7634119,0.615899874 C11.1921913,0.151929527 10.3546322,0.238734119 9.8921124,0.811644091 C9.42915953,1.38325203 9.51663994,2.22308602 10.0874274,2.68705637 L18.8125075,9.78115802 C18.882665,9.83801496 18.9584524,9.88792762 19.0390036,9.92959381 C19.3391217,10.085408 19.6595942,10.1913095 19.9934919,10.2446943 L22.244757,10.6031429 L19.7851848,13.8097571 C19.2706965,14.4807563 19.0493973,15.3123439 19.1619957,16.1513098 C19.2745941,16.9902757 19.7076651,17.7337566 20.3815235,18.2450355 C21.3464055,18.9767979 22.6633742,19.0857376 23.736524,18.5249802 L31.4118402,14.5041935 C31.5664465,14.4225972 31.752667,14.4321457 31.899045,14.5271967 L48.4103109,25.2514646 C48.7121613,25.4476428 48.9191693,25.7501567 48.9927913,26.1030172 C49.0664133,26.4563117 48.9975551,26.8165506 48.7996417,27.1173283 C48.4029487,27.7184498 47.610862,27.8977012 46.994169,27.5296499 L46.0691837,26.9749147 C46.0690213,26.9748062 46.0688589,26.9746434 46.0686965,26.974535 L45.7851434,26.8045609 L38.0646762,22.1742435 C37.434558,21.7957757 36.6169201,22.0015025 36.2401483,22.6338735 C35.8629435,23.2653766 36.0682191,24.0843775 36.6987704,24.4624113 L43.8417342,28.7463785 C43.842059,28.7465955 43.8423838,28.7468668 43.8427086,28.7470838 L44.4192342,29.0927287 L44.7031664,29.2629741 C44.9409799,29.4056591 45.021098,29.6221279 45.0475152,29.7383918 C45.0739326,29.8547099 45.0960192,30.0847419 44.9435782,30.3169441 C44.4845197,31.0170228 43.5477872,31.2496589 42.8150312,30.8503581 L35.8347938,27.0374683 C35.1882189,26.6833057 34.3809746,26.9241884 34.0301872,27.5700142 C33.6785336,28.2167081 33.9162895,29.0261605 34.5615652,29.378587 L39.5968269,32.1293688 L40.830267,32.8837546 C41.0524324,33.0196036 41.1212907,33.2244624 41.1425112,33.3347042 C41.1641648,33.4449459 41.1767238,33.6610893 41.0208183,33.8711562 C41.0021962,33.8963296 40.9844403,33.9219369 40.9675506,33.9484123 C40.5678261,34.5742732 39.7683771,34.7921526 39.1070779,34.4566529 L33.7023526,31.7066848 C33.0475494,31.3742235 32.2468012,31.6350711 31.9137696,32.2917475 C31.5811711,32.9484238 31.842746,33.750932 32.4975492,34.0842614 L36.516664,36.1292138 C35.756841,36.4832678 34.9021214,36.6187914 34.0392817,36.4874453 L30.4242221,35.9333609 L30.4538875,35.8906639 C31.4560136,34.4514445 31.1805805,32.4505997 29.8272338,31.3360293 C29.4873814,31.0561932 29.0955604,30.8558917 28.6821943,30.7272039 C28.9536756,29.4073408 28.4995466,27.9843972 27.4016035,27.093023 C26.8507372,26.6465222 26.1825629,26.3858372 25.4888374,26.3071163 C25.4832617,26.0949877 25.4679959,25.881991 25.4255008,25.6694284 C25.2293197,24.6859329 24.6589653,23.8430607 23.8205399,23.2961921 C22.2718241,22.2858956 20.2152785,22.6196591 19.0295845,23.9903029 C18.7725569,23.6778608 18.4740627,23.3948237 18.1122319,23.1711935 C16.7605092,22.3354828 15.0747807,22.5003029 13.898939,23.4593304 L10.2463646,18.6321837 C10.0800653,18.4125682 9.85053768,18.2502437 9.58852982,18.1669113 L1.79671759,15.6899436 C1.0951427,15.4655538 0.348528383,15.8553063 0.126362977,16.557555 C-0.0958024299,17.2593698 0.291796041,18.008927 0.99207176,18.2315807 L8.38156116,20.5805118 L12.1990814,25.6260261 L11.2043175,27.0513567 C10.0605772,28.6906607 10.4529394,30.968846 12.1371523,32.170221 C12.6767587,32.5550364 13.2958877,32.7705829 13.9374823,32.8258666 C14.0132156,33.9012122 14.535445,34.9380383 15.4769954,35.6020388 C16.1062475,36.0460441 16.8390034,36.2769441 17.5916807,36.2769441 C17.8129799,36.2769441 18.0360115,36.2569791 18.259043,36.216615 C18.3712625,36.1961616 18.4748206,36.1540072 18.5834132,36.1238969 C18.9167154,36.8401429 19.4702884,37.4402336 20.176248,37.8211971 C20.7323111,38.1211067 21.3325474,38.2647683 21.9258546,38.2647683 C22.4034235,38.2647683 22.8743882,38.1670589 23.3151461,37.987265 C23.6834188,38.5623452 24.2072181,39.0260441 24.8555794,39.2942702 C25.268296,39.4648411 25.7018,39.5468714 26.1309733,39.5468714 C27.0983455,39.5468714 28.029448,39.1122519 28.6798123,38.363834 L33.6373918,39.1236993 C33.9964077,39.1788201 34.3554234,39.2057296 34.7109747,39.2057296 C36.5019395,39.2057296 38.2120284,38.5173153 39.5152471,37.2690117 C39.5979095,37.2740572 39.6806801,37.2834429 39.7631802,37.2834429 C41.1044008,37.2834429 42.4036137,36.6198222 43.1853067,35.4223534 C43.5513598,34.913299 43.7506808,34.3114722 43.7938796,33.6944547 C45.1191342,33.6259875 46.3962603,32.9557479 47.166098,31.7822047 C47.4473234,31.3540955 47.6151926,30.8796544 47.6849712,30.3893172 C48.984184,30.3885577 50.2525946,29.7516293 51.0204294,28.5860612 C51.6124374,27.6872001 51.8172799,26.6116918 51.5972799,25.5574505 C51.5767632,25.4591444 51.535892,25.369573 51.5085545,25.2740336 L56.1453908,20.2701855 L63.7275968,18.2493756 C64.4378333,18.0601419 64.8605106,17.3296816 64.6716916,16.6183184 Z M13.3848296,28.579551 L15.383452,25.715869 C15.572704,25.4446047 15.8749875,25.2961689 16.1898301,25.2961689 C16.3747514,25.2961689 16.5640034,25.3469496 16.7376648,25.4541532 C16.9702239,25.5982488 17.1300271,25.8248087 17.1871924,26.0921666 C17.2406767,26.343086 17.1890871,26.5950905 17.0560803,26.8122104 L15.0195642,29.8007282 C14.8701005,29.9894738 14.6676398,30.1241294 14.4285306,30.1667721 C14.1678219,30.2162508 13.8988849,30.1537515 13.6221525,29.9562711 C13.1812863,29.6416046 13.0747509,29.0239903 13.3848296,28.579551 Z M17.0044365,33.4184706 C16.5471136,33.0959916 16.4314836,32.4571102 16.7471923,31.9944419 L17.1779897,31.3622335 C17.2054897,31.3249618 17.2401895,31.2951228 17.2664444,31.2566033 C17.886602,30.3481937 18.619791,29.2679111 19.2403816,28.3512551 C19.2566218,28.3272754 19.2654456,28.3003117 19.2810362,28.2760607 L20.9588071,25.8139581 C21.1562874,25.5235969 21.4819569,25.3664807 21.8119569,25.3664807 C22.0042404,25.3664807 22.1978231,25.4198655 22.3688861,25.5314093 C22.6027445,25.6837513 22.7616815,25.9185576 22.8166815,26.19286 C22.8712484,26.4667283 22.8149492,26.7449369 22.6577444,26.975837 L22.0813271,27.8229409 C22.0689846,27.8403017 22.0522572,27.853648 22.0401854,27.8712259 L18.8839643,32.4683948 C18.8275027,32.5506421 18.7923157,32.6429804 18.7430539,32.7289169 L18.4504604,33.1589249 C18.2941218,33.388957 18.0572319,33.543035 17.7839642,33.5929476 C17.5098303,33.6415582 17.2352633,33.581229 17.0044365,33.4184706 Z M21.4356183,35.4722662 C21.1749097,35.3316429 20.9930199,35.0955345 20.9237285,34.8069093 C20.8661301,34.5685223 20.9127935,34.332848 21.0185711,34.1179525 L24.2567507,29.3591101 C24.4207222,29.1361309 24.6570707,28.9867186 24.9326662,28.9467343 C24.9829025,28.9393559 25.0335717,28.9358838 25.083808,28.9358838 C25.3172333,28.9358838 25.541564,29.0148759 25.7269184,29.1654818 C26.1418003,29.5022834 26.2301468,30.1107834 25.9278633,30.5513164 L24.9792756,31.9337874 C24.9572431,31.9633552 24.9286604,31.9866296 24.9075482,32.0170112 L23.3714456,34.227923 C23.3203973,34.3013814 23.2904613,34.3839 23.2457468,34.460288 L22.7729416,35.1493533 L22.7729416,35.1497874 C22.4754217,35.584678 21.9016027,35.7239994 21.4356183,35.4722662 Z M26.7342412,36.575552 C26.5428239,36.8498544 26.1790443,36.9561899 25.8702647,36.8290212 C25.5935324,36.7144392 25.4913277,36.4900494 25.4549497,36.366353 C25.4281535,36.2741231 25.402061,36.1147282 25.4612834,35.9375385 L27.1522088,33.4731574 C27.300698,33.3086086 27.4797728,33.2533248 27.5821941,33.2392191 C27.6099106,33.235313 27.6432571,33.2322748 27.6818004,33.2322748 C27.8052256,33.2322748 27.9762886,33.2630904 28.1386902,33.3967694 C28.4262494,33.6337458 28.4847139,34.0590881 28.2716429,34.3650742 L26.7342412,36.5751179 C26.7342412,36.5751179 26.7342412,36.5751179 26.7342412,36.575552 Z" id="Shape"></path>
        </g>
    </g>
</svg>