<?xml version="1.0" encoding="UTF-8"?>
<svg width="51px" height="51px" viewBox="0 0 51 51" version="1.1" xmlns="http://www.w3.org/2000/svg" xmlns:xlink="http://www.w3.org/1999/xlink">
    <!-- Generator: Sketch 44.1 (41455) - http://www.bohemiancoding.com/sketch -->
    <title>sprite-facts-9</title>
    <desc>Created with Sketch.</desc>
    <defs></defs>
    <g id="Symbols" stroke="none" stroke-width="1" fill="none" fill-rule="evenodd">
        <g id="sprite-facts-9" fill-rule="nonzero" fill="#FFFFFF">
            <path d="M36.7234694,33.7818333 L34.8239796,33.7818333 C34.1908163,33.7818333 33.7687075,34.2011667 33.7687075,34.8301667 C33.7687075,35.4591667 34.1908163,35.8785 34.8239796,35.8785 L36.7234694,35.8785 C37.3566327,35.8785 37.7787415,35.4591667 37.7787415,34.8301667 C37.7787415,34.2011667 37.3566327,33.7818333 36.7234694,33.7818333 Z" id="Shape"></path>
            <path d="M50.3364796,13.8635 L37.040051,0.6545 C36.7234694,0.34 36.3013605,0.235166667 35.8792517,0.34 C33.6631803,1.07383333 31.8692177,2.227 30.2863095,3.485 C30.1807823,3.485 30.1807823,3.58983333 30.0752551,3.58983333 C30.0752551,3.58983333 30.0752551,3.69466667 29.9697279,3.69466667 C27.2260204,6.10583333 25.3265306,9.35566667 23.4270408,12.5006667 C23.3215136,12.7103333 23.1104592,12.92 23.004932,13.1296667 L4.64319728,13.1296667 C2.11054422,13.1296667 0,15.2263333 0,17.7423333 C0,17.7423333 0,17.8471667 0,17.8471667 L0,46.0473333 C0,48.5633333 2.11054422,50.66 4.64319728,50.66 L35.2460884,50.66 C37.7787415,50.66 39.8892857,48.5633333 39.8892857,46.0473333 L39.8892857,40.2815 L41.1556122,40.2815 C41.7887755,40.2815 42.2108844,39.8621667 42.2108844,39.2331667 L42.2108844,30.3223333 C42.2108844,29.6933333 41.7887755,29.274 41.1556122,29.274 L39.7837585,29.274 L39.7837585,24.9758333 C39.7837585,24.9758333 39.8892857,24.871 39.8892857,24.871 C41.5777211,22.1453333 43.1606293,20.0486667 45.060119,18.3713333 C45.060119,18.3713333 45.060119,18.3713333 45.060119,18.3713333 C45.060119,18.3713333 45.060119,18.3713333 45.060119,18.3713333 C46.4319728,17.2181667 48.014881,16.2746667 49.8088435,15.6456667 C50.1254252,15.5408333 50.4420068,15.2263333 50.547534,14.9118333 C50.7585884,14.4925 50.6530612,14.178 50.3364796,13.8635 Z M35.9847789,2.64633333 L37.6732143,4.32366667 C36.1958333,5.372 34.1908163,5.372 32.6079082,4.53333333 C33.5576531,3.69466667 34.7184524,3.06566667 35.9847789,2.64633333 Z M4.64319728,15.3311667 L21.8441327,15.3311667 C20.6833333,17.1133333 19.4170068,18.8955 17.9396259,20.3631667 L4.64319728,20.3631667 C3.27134354,20.3631667 2.21607143,19.3148333 2.11054422,17.952 L2.11054422,17.8471667 C2.11054422,17.8471667 2.11054422,17.8471667 2.11054422,17.8471667 C2.11054422,16.4843333 3.27134354,15.3311667 4.64319728,15.3311667 Z M40.1003401,38.1848333 L34.9295068,38.1848333 C33.030017,38.1848333 31.5526361,36.7171667 31.5526361,34.8301667 C31.5526361,32.9431667 33.030017,31.4755 34.9295068,31.4755 L38.7284864,31.4755 C38.7284864,31.4755 38.7284864,31.4755 38.7284864,31.4755 C38.7284864,31.4755 38.7284864,31.4755 38.7284864,31.4755 L40.1003401,31.4755 L40.1003401,38.1848333 Z M34.9295068,29.3788333 C31.8692177,29.3788333 29.4420918,31.79 29.4420918,34.8301667 C29.4420918,37.8703333 31.8692177,40.2815 34.9295068,40.2815 L37.6732143,40.2815 L37.6732143,46.0473333 C37.6732143,47.4101667 36.512415,48.5633333 35.1405612,48.5633333 L4.53767007,48.5633333 C3.27134354,48.5633333 2.11054422,47.4101667 2.11054422,46.0473333 L2.11054422,21.726 C2.84923469,22.1453333 3.69345238,22.4598333 4.64319728,22.4598333 L27.7536565,22.4598333 C27.7536565,22.4598333 27.7536565,22.4598333 27.7536565,22.4598333 L35.1405612,22.4598333 C36.512415,22.4598333 37.6732143,23.613 37.6732143,24.9758333 L37.6732143,29.3788333 L34.9295068,29.3788333 Z M39.045068,22.355 C38.2008503,21.097 36.8289966,20.3631667 35.2460884,20.3631667 L33.2410714,20.3631667 C33.2410714,20.3631667 33.2410714,20.3631667 33.2410714,20.3631667 L20.8943878,20.3631667 C22.5828231,18.2665 24.0602041,15.9601667 25.4320578,13.6538333 C27.1204932,10.8233333 28.8089286,8.09766667 31.025,5.89616667 C32.1857993,6.73483333 33.6631803,7.259 35.035034,7.259 C36.512415,7.259 37.9897959,6.73483333 39.2561224,5.79133333 L43.055102,9.56533333 C41.2611395,11.9765 41.2611395,15.2263333 43.055102,17.5326667 C41.3666667,19.0003333 40.1003401,20.6776667 39.045068,22.355 Z M44.532483,16.1698333 C43.4772109,14.5973333 43.4772109,12.6055 44.532483,11.033 L47.8038265,14.2828333 C46.5375,14.807 45.4822279,15.436 44.532483,16.1698333 Z" id="Shape"></path>
        </g>
    </g>
</svg>