<?xml version="1.0" encoding="UTF-8"?>
<svg width="37px" height="48px" viewBox="0 0 37 48" version="1.1" xmlns="http://www.w3.org/2000/svg" xmlns:xlink="http://www.w3.org/1999/xlink">
    <!-- Generator: Sketch 44.1 (41455) - http://www.bohemiancoding.com/sketch -->
    <title>sprite-facts-8</title>
    <desc>Created with Sketch.</desc>
    <defs></defs>
    <g id="Symbols" stroke="none" stroke-width="1" fill="none" fill-rule="evenodd">
        <g id="sprite-facts-8" fill-rule="nonzero" fill="#FFFFFF">
            <path d="M0,18.4615385 C0,8.26551231 8.28273212,0 18.5,0 C28.7172679,0 37,8.26551231 37,18.4615385 C37,28.6575646 18.5,48 18.5,48 C18.5,48 0,28.6575646 0,18.4615385 Z M18.5,42.4615385 C18.5,42.4615385 22.8334829,37.4236235 24.797625,34.828785 C26.5332393,32.5358559 28.0688166,30.3227433 29.3490941,28.2380712 C31.9159199,24.0585161 33.3,20.6168276 33.3,18.4615385 C33.3,10.3047175 26.6738143,3.69230769 18.5,3.69230769 C10.3261857,3.69230769 3.7,10.3047175 3.7,18.4615385 C3.7,20.6168276 5.08408009,24.0585161 7.65090588,28.2380712 C8.9311834,30.3227433 10.4667607,32.5358559 12.202375,34.828785 C14.1665171,37.4236235 18.5,42.4615385 18.5,42.4615385 Z M18.5,24 C21.5651803,24 24.05,21.5203462 24.05,18.4615385 C24.05,15.4027307 21.5651803,12.9230769 18.5,12.9230769 C15.4348197,12.9230769 12.95,15.4027307 12.95,18.4615385 C12.95,21.5203462 15.4348197,24 18.5,24 L18.5,24 Z" id="Shape"></path>
        </g>
    </g>
</svg>