<?xml version="1.0" encoding="UTF-8"?>
<svg width="49px" height="41px" viewBox="0 0 49 41" version="1.1" xmlns="http://www.w3.org/2000/svg" xmlns:xlink="http://www.w3.org/1999/xlink">
    <!-- Generator: Sketch 44.1 (41455) - http://www.bohemiancoding.com/sketch -->
    <title>sprite-facts-6</title>
    <desc>Created with Sketch.</desc>
    <defs></defs>
    <g id="Symbols" stroke="none" stroke-width="1" fill="none" fill-rule="evenodd">
        <g id="sprite-facts-6" fill-rule="nonzero" fill="#FFFFFF">
            <path d="M49,41 L0,41 L0,0 L49,0 L49,41 Z M1.96,39.047619 L47.04,39.047619 L47.04,1.95238095 L1.96,1.95238095 L1.96,39.047619 Z" id="Shape"></path>
            <polygon id="Shape" points="9.8 16.5952381 7.84 16.5952381 7.84 7.80952381 16.66 7.80952381 16.66 9.76190476 9.8 9.76190476"></polygon>
            <polygon id="Shape" points="41.16 33.1904762 32.34 33.1904762 32.34 31.2380952 39.2 31.2380952 39.2 24.4047619 41.16 24.4047619"></polygon>
            <polygon id="Rectangle-path" points="9.510312 8.07994226 17.3502656 15.9198958 15.969737 17.3004244 8.12978343 9.46047083"></polygon>
            <polygon id="Rectangle-path" points="33.030263 23.6987214 40.8702166 31.538675 39.489688 32.9192036 31.6497344 25.07925"></polygon>
        </g>
    </g>
</svg>