<?xml version="1.0" encoding="UTF-8"?>
<svg width="51px" height="51px" viewBox="0 0 51 51" version="1.1" xmlns="http://www.w3.org/2000/svg" xmlns:xlink="http://www.w3.org/1999/xlink">
    <!-- Generator: Sketch 44.1 (41455) - http://www.bohemiancoding.com/sketch -->
    <title>sprite-facts-4</title>
    <desc>Created with Sketch.</desc>
    <defs></defs>
    <g id="Symbols" stroke="none" stroke-width="1" fill="none" fill-rule="evenodd">
        <g id="sprite-facts-4" fill-rule="nonzero" fill="#FFFFFF">
            <path d="M25.5,48 L25.5,48 C37.9264068,48 48,37.9264068 48,25.5 C48,13.0735932 37.9264068,3 25.5,3 C13.0735932,3 3,13.0735932 3,25.5 C3,37.9264068 13.0735932,48 25.5,48 L25.5,48 L25.5,48 L25.5,48 Z M25.5,51 L25.5,51 C11.4167389,51 0,39.583261 0,25.5 C0,11.4167389 11.4167389,0 25.5,0 C39.583261,0 51,11.4167389 51,25.5 C51,39.583261 39.583261,51 25.5,51 L25.5,51 L25.5,51 L25.5,51 Z M27,25.7573593 L33.5459415,32.3033008 L31.4246213,34.4246212 L24,27 L24,9 L27,9 L27,25.7573593 L27,25.7573593 Z" id="Shape"></path>
        </g>
    </g>
</svg>