<?xml version="1.0" encoding="UTF-8"?>
<svg width="49px" height="49px" viewBox="0 0 49 49" version="1.1" xmlns="http://www.w3.org/2000/svg" xmlns:xlink="http://www.w3.org/1999/xlink">
    <!-- Generator: Sketch 44.1 (41455) - http://www.bohemiancoding.com/sketch -->
    <title>sprite-facts-7</title>
    <desc>Created with Sketch.</desc>
    <defs></defs>
    <g id="Symbols" stroke="none" stroke-width="1" fill="none" fill-rule="evenodd">
        <g id="sprite-facts-7" fill-rule="nonzero" fill="#FFFFFF">
            <path d="M24.5,49 C10.9690236,49 0,38.0309764 0,24.5 C0,10.9690236 10.9690236,0 24.5,0 C38.0309764,0 49,10.9690236 49,24.5 C49,38.0309764 38.0309764,49 24.5,49 L24.5,49 Z M24.5,45.5 C36.0979798,45.5 45.5,36.0979798 45.5,24.5 C45.5,12.9020203 36.0979798,3.5 24.5,3.5 C12.9020203,3.5 3.5,12.9020203 3.5,24.5 C3.5,36.0979798 12.9020203,45.5 24.5,45.5 L24.5,45.5 Z M21,28.3002526 L16.0502526,23.3505052 L13.5753788,25.8253788 L19.7625631,32.0125631 L21,33.25 L35.8492425,18.4007576 L33.3743687,15.9258839 L21,28.3002526 L21,28.3002526 L21,28.3002526 Z" id="Shape"></path>
        </g>
    </g>
</svg>