<?xml version="1.0" encoding="UTF-8"?>
<svg width="34px" height="53px" viewBox="0 0 34 53" version="1.1" xmlns="http://www.w3.org/2000/svg" xmlns:xlink="http://www.w3.org/1999/xlink">
    <!-- Generator: Sketch 44.1 (41455) - http://www.bohemiancoding.com/sketch -->
    <title>sprite-facts-3</title>
    <desc>Created with Sketch.</desc>
    <defs></defs>
    <g id="Symbols" stroke="none" stroke-width="1" fill="none" fill-rule="evenodd">
        <g id="sprite-facts-3" fill-rule="nonzero" fill="#FFFFFF">
            <path d="M33.6230655,16.6766809 C33.6230655,7.48388152 26.0786674,0 16.8115327,0 C7.54439808,0 0,7.48388152 0,16.6766809 C0,21.4498651 2.07916483,25.810552 5.34642384,28.8748185 L4.57416262,50.8550374 C4.57416262,51.5032476 4.98999558,52.1514578 5.58404268,52.3871707 C6.17808977,52.6228835 6.83154157,52.5639553 7.36618396,52.1514578 L16.8709374,45.7872121 L26.3162862,52.210386 C26.6133098,52.4460989 27.0291427,52.5639553 27.385571,52.5639553 C27.6231898,52.5639553 27.8608087,52.5050271 28.0984275,52.3871707 C28.6924746,52.0925296 29.1083076,51.5032476 29.1083076,50.7961092 L28.3360463,28.8748185 C31.6033054,25.810552 33.6230655,21.5087933 33.6230655,16.6766809 Z M17.8808175,43.6657969 C17.2273657,43.1943713 16.3956998,43.1943713 15.742248,43.6657969 L6.95035099,49.558617 L7.60380279,30.6426645 C10.2770147,32.3515823 13.4254643,33.3533617 16.8115327,33.3533617 C20.1976012,33.3533617 23.3460508,32.3515823 26.0192627,30.6426645 L26.6727145,49.558617 L17.8808175,43.6657969 Z M16.8115327,31.0551619 C8.85130169,31.0551619 2.37618837,24.631988 2.37618837,16.7356091 C2.37618837,8.83923014 8.85130169,2.35712804 16.8115327,2.35712804 C24.7717638,2.35712804 31.2468771,8.78030194 31.2468771,16.6766809 C31.2468771,24.5730598 24.7717638,31.0551619 16.8115327,31.0551619 Z" id="Shape"></path>
            <polygon id="Shape" points="15.2389237 18.8221977 11.3776176 14.9329364 9.71428571 16.6418542 15.2389237 22.1221769 23.7337971 13.6954442 22.0704653 12.0454545"></polygon>
        </g>
    </g>
</svg>