<?xml version="1.0" encoding="UTF-8"?>
<svg width="44px" height="39px" viewBox="0 0 44 39" version="1.1" xmlns="http://www.w3.org/2000/svg" xmlns:xlink="http://www.w3.org/1999/xlink">
    <!-- Generator: Sketch 44.1 (41455) - http://www.bohemiancoding.com/sketch -->
    <title>sprite-facts-1</title>
    <desc>Created with Sketch.</desc>
    <defs></defs>
    <g id="Symbols" stroke="none" stroke-width="1" fill="none" fill-rule="evenodd">
        <g id="sprite-facts-1" fill-rule="nonzero" fill="#FFFFFF">
            <path d="M20.9970787,7.09850038 L22,8.52355006 L23.0029213,7.09850038 C25.0119094,4.2439321 28.1361575,2.41922108 31.35,2.41922108 C36.9552159,2.41922108 41.5555556,7.04402395 41.5555556,12.6442101 C41.5555556,14.7321869 40.394001,17.3656644 38.2094245,20.3826258 C36.5035387,22.7385017 34.232637,25.2523505 31.5368101,27.8468066 C29.2922078,30.0070054 26.8834317,32.0999636 24.474401,34.0429668 C23.6312221,34.7230325 22,36.0749982 22,36.0749982 C22,36.0749982 20.3687779,34.7230325 19.525599,34.0429668 C17.1165683,32.0999636 14.7077922,30.0070054 12.4631899,27.8468066 C9.76736295,25.2523505 7.4964613,22.7385017 5.79057551,20.3826258 C3.60599897,17.3656644 2.44444444,14.7321869 2.44444444,12.6442101 C2.44444444,7.04402395 7.04478416,2.41922108 12.65,2.41922108 C15.8638425,2.41922108 18.9880906,4.2439321 20.9970787,7.09850038 Z M3.80365148,21.7918157 C5.60447449,24.2788027 7.96750751,26.8946392 10.7590323,29.5811946 C13.0595689,31.7952245 15.5205844,33.933573 17.9813454,35.9182992 C18.8425936,36.6129387 19.642729,37.2391032 20.361555,37.7868644 C20.7948277,38.1170277 21.1061772,38.3487374 21.275374,38.4720186 L22,39 L22.724626,38.4720186 C22.8938228,38.3487374 23.2051723,38.1170277 23.638445,37.7868644 C24.357271,37.2391032 25.1574064,36.6129387 26.0186546,35.9182992 C28.4794156,33.933573 30.9404311,31.7952245 33.2409677,29.5811946 C36.0324925,26.8946392 38.3955255,24.2788027 40.1963485,21.7918157 C42.6511501,18.4016662 44,15.3435522 44,12.6442101 C44,5.71634015 38.3138967,0 31.35,0 C27.2846795,0 24.4425269,0.978058831 22.0005735,4.44782713 C19.5746221,1.70873448 16.195872,0 12.65,0 C5.68610323,0 0,5.71634015 0,12.6442101 C0,15.3435522 1.34884994,18.4016662 3.80365148,21.7918157 L3.80365148,21.7918157 Z" id="Shape"></path>
        </g>
    </g>
</svg>