<?xml version="1.0" encoding="UTF-8"?>
<svg width="111px" height="87px" viewBox="0 0 111 87" version="1.1" xmlns="http://www.w3.org/2000/svg" xmlns:xlink="http://www.w3.org/1999/xlink">
    <!-- Generator: Sketch 44.1 (41455) - http://www.bohemiancoding.com/sketch -->
    <title>stocks-icon-1-active</title>
    <desc>Created with Sketch.</desc>
    <defs></defs>
    <g id="Symbols" stroke="none" stroke-width="1" fill="none" fill-rule="evenodd">
        <g id="stocks-icon-1-active" fill-rule="nonzero" fill="#FF5844">
            <path d="M82.14,70.6235294 C82.8230769,69.9411765 84.1892308,69.9411765 84.8723077,70.6235294 C85.0430769,70.7941176 85.3846154,71.1352941 85.3846154,71.4764706 L87.9461538,71.4764706 C87.9461538,70.4529412 87.4338462,69.4294118 86.58,68.5764706 C86.0676923,68.2352941 85.5553846,67.8941176 84.8723077,67.7235294 L84.8723077,66.0176471 L82.3107692,66.0176471 L82.3107692,67.7235294 C81.6276923,67.8941176 81.1153846,68.2352941 80.6030769,68.5764706 C79.7492308,69.2588235 79.2369231,70.2823529 79.2369231,71.4764706 C79.2369231,72.6705882 79.7492308,73.5235294 80.6030769,74.3764706 C81.4569231,75.0588235 82.4815385,75.4 83.6769231,75.4 C84.1892308,75.4 84.7015385,75.5705882 85.0430769,75.9117647 C85.2138462,76.0823529 85.5553846,76.4235294 85.5553846,76.7647059 C85.5553846,77.1058824 85.2138462,77.6176471 85.0430769,77.6176471 C84.36,78.3 82.9938462,78.3 82.3107692,77.6176471 C82.14,77.4470588 81.7984615,77.1058824 81.7984615,76.7647059 L79.2369231,76.7647059 C79.2369231,77.7882353 79.7492308,78.8117647 80.6030769,79.6647059 C81.1153846,80.1764706 81.6276923,80.3470588 82.3107692,80.5176471 L82.3107692,82.2235294 L84.8723077,82.2235294 L84.8723077,80.5176471 C85.5553846,80.3470588 86.0676923,80.0058824 86.58,79.6647059 C87.4338462,78.9823529 87.9461538,77.9588235 87.9461538,76.7647059 C87.9461538,75.7411765 87.4338462,74.7176471 86.58,73.8647059 C85.7261538,73.1823529 84.7015385,72.8411765 83.5061538,72.8411765 C82.9938462,72.8411765 82.4815385,72.6705882 82.14,72.3294118 C81.9692308,72.1588235 81.6276923,71.8176471 81.6276923,71.4764706 C81.6276923,71.1352941 81.9692308,70.7941176 82.14,70.6235294 Z" id="Shape"></path>
            <path d="M97.5092308,41.9647059 C91.02,41.9647059 84.0184615,44.1823529 84.0184615,48.2764706 L84.0184615,61.7529412 C83.8476923,61.7529412 83.6769231,61.7529412 83.3353846,61.7529412 C82.6523077,61.7529412 81.9692308,61.7529412 81.4569231,61.9235294 L81.4569231,56.1235294 C81.4569231,53.9058824 79.2369231,51.8588235 75.8215385,50.8352941 C75.9923077,50.1529412 76.3338462,49.4705882 76.5046154,48.7882353 L76.5046154,48.7882353 C77.1876923,46.2294118 77.7,43.5 77.7,40.7705882 C77.7,33.7764706 75.1384615,27.1235294 70.8692308,21.6647059 C70.8692308,21.6647059 70.8692308,21.6647059 70.8692308,21.6647059 C75.1384615,16.5470588 73.9430769,6.65294118 72.4061538,1.36470588 L72.0646154,0.341176471 L71.04,0.341176471 C63.1846154,0.511764706 54.1338462,3.41176471 51.5723077,8.87058824 C51.5723077,8.87058824 51.5723077,8.87058824 51.5723077,8.87058824 C51.5723077,8.87058824 51.5723077,8.87058824 51.5723077,8.87058824 C47.4738462,7.67647059 43.2046154,6.99411765 38.5938462,6.99411765 C33.6415385,6.99411765 28.86,7.84705882 24.5907692,9.21176471 C24.9323077,9.04117647 25.4446154,8.87058824 25.9569231,8.7 C23.2246154,3.24117647 14.3446154,0.511764706 6.48923077,0.170588235 L5.46461538,0.170588235 L5.46461538,1.19411765 C3.92769231,6.48235294 2.73230769,16.2058824 6.83076923,21.3235294 C6.83076923,21.3235294 6.83076923,21.3235294 6.83076923,21.3235294 C2.56153846,26.7823529 0,33.4352941 0,40.6 C0,49.6411765 4.26923077,58 11.2707692,64.1411765 C11.2707692,64.1411765 11.1,64.1411765 11.1,63.9705882 L11.1,74.5470588 C11.1,77.2764706 13.32,79.4941176 15.8815385,79.4941176 L23.5661538,79.4941176 C26.2984615,79.4941176 28.3476923,77.2764706 28.3476923,74.5470588 L28.3476923,72.8411765 C28.3476923,72.8411765 28.1769231,72.8411765 28.1769231,72.6705882 C31.5923077,73.5235294 35.1784615,74.0352941 38.7646154,74.0352941 C44.7415385,74.0352941 50.5476923,72.8411765 56.0123077,70.6235294 L56.0123077,80.5176471 C56.0123077,84.1 61.4769231,86.8294118 68.82,86.8294118 C72.0646154,86.8294118 75.1384615,86.3176471 77.3584615,85.2941176 C79.2369231,86.3176471 81.2861538,86.8294118 83.5061538,86.8294118 C85.5553846,86.8294118 87.4338462,86.3176471 89.1415385,85.4647059 C91.5323077,86.3176471 94.4353846,86.8294118 97.5092308,86.8294118 C103.998462,86.8294118 111,84.6117647 111,80.5176471 L111,48.2764706 C111,44.1823529 104.169231,41.9647059 97.5092308,41.9647059 Z M97.5092308,44.5235294 C104.169231,44.5235294 108.438462,46.7411765 108.438462,48.2764706 C108.438462,49.8117647 104.169231,52.0294118 97.5092308,52.0294118 C90.8492308,52.0294118 86.58,49.8117647 86.58,48.2764706 C86.7507692,46.7411765 91.02,44.5235294 97.5092308,44.5235294 Z M73.0892308,67.3823529 C71.7230769,67.5529412 70.3569231,67.7235294 68.82,67.7235294 C62.5015385,67.7235294 58.5738462,65.5058824 58.5738462,63.9705882 L58.5738462,59.8764706 C60.7938462,61.4117647 64.5507692,62.2647059 68.82,62.2647059 C73.0892308,62.2647059 76.6753846,61.2411765 79.0661538,59.8764706 L79.0661538,62.6058824 C76.5046154,63.4588235 74.4553846,65.1647059 73.0892308,67.3823529 Z M79.0661538,55.9529412 C79.0661538,57.4882353 75.1384615,59.7058824 68.82,59.7058824 C62.5015385,59.7058824 58.5738462,57.4882353 58.5738462,55.9529412 C58.5738462,54.4176471 62.5015385,52.2 68.82,52.2 C75.1384615,52.2 79.0661538,54.4176471 79.0661538,55.9529412 Z M70.3569231,2.9 C71.8938462,8.87058824 71.8938462,16.0352941 69.1615385,19.6176471 C65.2338462,15.3529412 60.1107692,11.9411765 54.1338462,9.72352941 C56.5246154,5.62941176 63.6969231,3.24117647 70.3569231,2.9 Z M7.68461538,2.9 C13.4907692,3.24117647 21.3461538,5.28823529 23.7369231,9.72352941 C17.76,11.9411765 12.6369231,15.3529412 8.70923077,19.6176471 C6.14769231,15.8647059 6.14769231,8.87058824 7.68461538,2.9 Z M25.7861538,74.5470588 C25.7861538,75.9117647 24.7615385,76.9352941 23.3953846,76.9352941 L15.8815385,76.9352941 C14.5153846,76.9352941 13.4907692,75.9117647 13.4907692,74.5470588 L13.4907692,66.0176471 C13.4907692,66.0176471 13.4907692,66.0176471 13.4907692,66.0176471 C17.0769231,68.7470588 21.3461538,70.7941176 25.7861538,72.1588235 L25.7861538,74.5470588 L25.7861538,74.5470588 Z M38.9353846,71.6470588 C18.7846154,71.6470588 2.56153846,57.6588235 2.56153846,40.6 C2.56153846,23.5411765 18.9553846,9.55294118 38.9353846,9.55294118 C58.9153846,9.55294118 75.3092308,23.5411765 75.3092308,40.6 C75.3092308,42.6470588 75.1384615,44.6941176 74.6261538,46.5705882 C74.6261538,46.5705882 74.6261538,46.5705882 74.6261538,46.5705882 C74.2846154,47.7647059 73.9430769,48.9588235 73.6015385,50.1529412 C72.2353846,49.8117647 70.6984615,49.8117647 68.9907692,49.8117647 C61.6476923,49.8117647 56.1830769,52.5411765 56.1830769,56.1235294 L56.1830769,68.0647059 C50.8892308,70.2823529 44.9123077,71.6470588 38.9353846,71.6470588 Z M58.5738462,67.8941176 C60.7938462,69.4294118 64.5507692,70.2823529 68.82,70.2823529 C69.8446154,70.2823529 70.6984615,70.2823529 71.7230769,70.1117647 C71.2107692,71.4764706 71.04,72.8411765 71.04,74.2058824 C71.04,74.7176471 71.04,75.4 71.2107692,75.9117647 C70.5276923,75.9117647 69.6738462,76.0823529 68.9907692,76.0823529 C62.6723077,76.0823529 58.7446154,73.8647059 58.7446154,72.3294118 L58.7446154,67.8941176 L58.5738462,67.8941176 Z M68.82,84.2705882 C62.5015385,84.2705882 58.5738462,82.0529412 58.5738462,80.5176471 L58.5738462,76.0823529 C60.7938462,77.6176471 64.5507692,78.4705882 68.82,78.4705882 C69.8446154,78.4705882 70.6984615,78.4705882 71.7230769,78.3 C72.4061538,80.1764706 73.6015385,81.8823529 74.9676923,83.2470588 C73.26,83.9294118 71.04,84.2705882 68.82,84.2705882 Z M73.6015385,74.2058824 C73.6015385,68.7470588 78.0415385,64.1411765 83.6769231,64.1411765 C89.1415385,64.1411765 93.7523077,68.5764706 93.7523077,74.2058824 C93.7523077,79.6647059 89.3123077,84.2705882 83.6769231,84.2705882 C78.0415385,84.2705882 73.6015385,79.8352941 73.6015385,74.2058824 Z M97.5092308,84.2705882 C95.46,84.2705882 93.5815385,84.1 91.8738462,83.5882353 C93.24,82.3941176 94.4353846,80.8588235 95.1184615,79.1529412 C95.9723077,79.1529412 96.8261538,79.3235294 97.68,79.3235294 C101.778462,79.3235294 105.876923,78.4705882 108.609231,76.7647059 L108.609231,80.5176471 C108.438462,82.0529412 104.169231,84.2705882 97.5092308,84.2705882 Z M97.5092308,76.7647059 C96.9969231,76.7647059 96.3138462,76.7647059 95.8015385,76.5941176 C95.9723077,75.9117647 95.9723077,75.0588235 95.9723077,74.2058824 C95.9723077,73.0117647 95.8015385,71.9882353 95.46,70.9647059 C96.1430769,70.9647059 96.8261538,70.9647059 97.3384615,70.9647059 C101.436923,70.9647059 105.535385,70.1117647 108.267692,68.4058824 L108.267692,72.8411765 C108.438462,74.3764706 104.169231,76.7647059 97.5092308,76.7647059 Z M97.5092308,68.4058824 C96.4846154,68.4058824 95.46,68.4058824 94.4353846,68.2352941 C92.7276923,65.1647059 89.9953846,62.9470588 86.58,62.0941176 L86.58,60.2176471 C89.1415385,61.9235294 93.4107692,62.7764706 97.5092308,62.7764706 C101.607692,62.7764706 105.706154,61.9235294 108.438462,60.2176471 L108.438462,64.6529412 C108.438462,66.1882353 104.169231,68.4058824 97.5092308,68.4058824 Z M97.5092308,60.2176471 C90.8492308,60.2176471 86.58,58 86.58,56.4647059 L86.58,52.0294118 C89.1415385,53.7352941 93.4107692,54.5882353 97.5092308,54.5882353 C101.607692,54.5882353 105.706154,53.7352941 108.438462,52.0294118 L108.438462,56.4647059 C108.438462,58 104.169231,60.2176471 97.5092308,60.2176471 Z" id="Shape"></path>
            <path d="M44.4,44.0117647 C43.7169231,44.0117647 43.2046154,44.5235294 43.2046154,45.2058824 L43.2046154,47.4235294 C43.2046154,48.1058824 43.7169231,48.6176471 44.4,48.6176471 C45.0830769,48.6176471 45.5953846,48.1058824 45.5953846,47.4235294 L45.5953846,45.2058824 C45.5953846,44.5235294 45.0830769,44.0117647 44.4,44.0117647 Z" id="Shape"></path>
            <path d="M33.4707692,44.0117647 C32.7876923,44.0117647 32.2753846,44.5235294 32.2753846,45.2058824 L32.2753846,47.4235294 C32.2753846,48.1058824 32.7876923,48.6176471 33.4707692,48.6176471 C34.1538462,48.6176471 34.6661538,48.1058824 34.6661538,47.4235294 L34.6661538,45.2058824 C34.8369231,44.5235294 34.1538462,44.0117647 33.4707692,44.0117647 Z" id="Shape"></path>
            <path d="M38.9353846,35.1411765 C31.2507692,35.1411765 25.1030769,40.2588235 25.1030769,46.4 C25.1030769,52.5411765 31.2507692,57.6588235 38.9353846,57.6588235 C46.62,57.6588235 52.7676923,52.5411765 52.7676923,46.4 C52.7676923,40.2588235 46.62,35.1411765 38.9353846,35.1411765 Z M38.9353846,55.1 C32.6169231,55.1 27.6646154,51.1764706 27.6646154,46.4 C27.6646154,41.6235294 32.7876923,37.7 38.9353846,37.7 C45.2538462,37.7 50.2061538,41.6235294 50.2061538,46.4 C50.2061538,51.1764706 45.0830769,55.1 38.9353846,55.1 Z" id="Shape"></path>
            <path d="M48.3276923,21.8352941 C45.7661538,21.8352941 43.7169231,23.8823529 43.7169231,26.4411765 L46.2784615,26.4411765 C46.2784615,25.4176471 47.1323077,24.3941176 48.3276923,24.3941176 C49.3523077,24.3941176 50.3769231,25.2470588 50.3769231,26.4411765 L52.9384615,26.4411765 C52.9384615,23.8823529 50.8892308,21.8352941 48.3276923,21.8352941 Z" id="Shape"></path>
            <path d="M29.5430769,24.3941176 C30.5676923,24.3941176 31.5923077,25.2470588 31.5923077,26.4411765 L34.1538462,26.4411765 C34.1538462,23.8823529 32.1046154,21.8352941 29.5430769,21.8352941 C26.9815385,21.8352941 24.9323077,23.8823529 24.9323077,26.4411765 L27.4938462,26.4411765 C27.4938462,25.2470588 28.3476923,24.3941176 29.5430769,24.3941176 Z" id="Shape"></path>
        </g>
    </g>
</svg>