<?xml version="1.0" encoding="UTF-8"?><svg width="294" height="286" viewBox="0 0 294 286" xmlns="http://www.w3.org/2000/svg" xmlns:xlink="http://www.w3.org/1999/xlink"><svg width="35" height="53" viewBox="0 0 35 53" id="L1VzZXJzL2FsZmFtb3RvcnMvUHJvamVjdHMvc2N2dC1mcm9udGVuZC9zcmMvbW9kdWxlcy93b3JrL3Nwcml0ZS13b3JrLTEuc3Zn" y="189" xmlns="http://www.w3.org/2000/svg"><title>sprite-work-1</title><path d="M13.943.2c-.605 0-1.094.494-1.094 1.104V7.93c0 .61.49 1.104 1.094 1.104.604 0 1.093-.494 1.093-1.104V1.304c0-.61-.49-1.104-1.093-1.104zm12.646 7.177a1.3 1.3 0 0 0-.615.155l-5.691 3.313a1.1 1.1 0 0 0-.393 1.5c.302.529.963.702 1.487.398l5.69-3.313a1.1 1.1 0 0 0 .394-1.5c-.247-.373-.545-.545-.872-.553zm-25.344.017c-.338.035-.617.238-.82.535A1.1 1.1 0 0 0 .817 9.43l5.69 3.313a1.078 1.078 0 0 0 1.487-.397 1.1 1.1 0 0 0-.393-1.501l-5.69-3.313a1.157 1.157 0 0 0-.667-.138zm12.698 3.848c-2.405 0-4.375 1.989-4.375 4.416v14.096c-.678-1.478-1.893-3.076-3.418-3.468-2.075-.569-4.617 1.107-5.196 3.054-.295 1.085-.102 2.32.479 3.83 2.841 6.897 6.34 13.519 10.595 18.546.204.236.51.378.82.38h14.766c.233 0 .464-.083.65-.224 1.574-1.178 2.843-3.183 3.896-5.573 1.054-2.39 1.86-5.162 2.273-7.867.414-2.706.412-5.239-.17-7.488-.563-2.17-2.08-3.977-4.341-4.244-.534 0-1.097.045-1.573.155-.28-.677-.673-1.254-1.162-1.604-.818-.586-1.65-.77-2.324-.76-.647.012-1.237.25-1.76.622-.236-.363-.478-.74-.786-.966a3.948 3.948 0 0 0-2.359-.76c-.566 0-1.115.16-1.64.38v-8.109c-.047-2.955-2.356-4.422-4.375-4.416zm0 2.208c1.23 0 2.187.966 2.187 2.208v10.49c-.007.5.371.975.855 1.087.483.112 1.02-.15 1.23-.604.242-.507 1.152-1.035 1.743-1.035.266 0 .758.111 1.077.345.319.234.564.507.564 1.311 0 .49.364.955.837 1.07a1.125 1.125 0 0 0 1.23-.57c.445-.898.684-1.043 1.231-1.052.152-.006.682.1 1.025.345.343.246.599.528.599 1.311-.006.43.258.847.65 1.018.39.172.886.089 1.195-.207.415-.206.822-.269 1.35-.259 1.305.168 1.981.993 2.444 2.64.467 1.662.485 4.038.103 6.539-.382 2.5-1.137 5.126-2.102 7.315-.905 2.053-2.014 3.657-2.99 4.485H13.378c-3.84-4.572-7.506-11.592-9.895-17.511-.498-1.293-.543-2.035-.428-2.45.406-1.068 1.54-1.67 2.513-1.518 1.162.442 1.45 1.225 1.948 2.122l2.17 4.4c.222.437.758.683 1.23.569.474-.115.837-.579.838-1.07V15.66c0-1.243.957-2.209 2.188-2.209z" fill-rule="nonzero" fill="#FFF"/></svg><svg width="63" height="32" viewBox="0 0 63 32" id="L1VzZXJzL2FsZmFtb3RvcnMvUHJvamVjdHMvc2N2dC1mcm9udGVuZC9zcmMvbW9kdWxlcy93b3JrL3Nwcml0ZS13b3JrLTIuc3Zn" x="125" y="108" xmlns="http://www.w3.org/2000/svg"><title>sprite-work-2</title><path d="M61.588 1.283c-1.925-1.625-3.83.321-5.092 1.61-.402.41-.781.796-1.132 1.078-1.257 1.013-2.727 1.82-4.629 2.543-.625.24-1.304.383-2.023.534-1.25.264-2.543.537-3.583 1.36-.219.172-.42.357-.606.55a5.54 5.54 0 0 0-2.987-.876h-19.38c-1.099 0-2.121.324-2.986.875a5.736 5.736 0 0 0-.602-.547c-1.048-.826-2.34-1.099-3.59-1.362-.719-.152-1.398-.295-2.026-.535-1.9-.722-3.37-1.53-4.627-2.542-.351-.282-.73-.669-1.133-1.078-1.26-1.289-3.168-3.233-5.09-1.61C1.04 2.177.53 3.47.737 4.745c.185 1.15.851 2.438 1.831 3.531a9.776 9.776 0 0 0 2.302 1.87 2.91 2.91 0 0 0-.41.334c-.557.554-.851 1.316-.851 2.205 0 2.503 3.203 3.678 4.836 3.725.185.005.362.008.534.008.661 0 1.237-.04 1.763-.117-.008.08-.026.156-.028.24-.016.633.167 1.584 1.133 2.518.643.623 1.419.858 2.209.858.872 0 1.755-.29 2.502-.66v6.439c0 1.343.472 2.577 1.256 3.544.016.223.086.444.245.624.205.231.49.349.775.349a5.54 5.54 0 0 0 3.32 1.107h19.381a5.54 5.54 0 0 0 3.32-1.107c.286 0 .57-.118.774-.35.159-.178.228-.398.244-.62a5.613 5.613 0 0 0 1.26-3.547v-6.439c.748.372 1.631.662 2.501.662.79 0 1.565-.237 2.206-.86.968-.934 1.152-1.885 1.136-2.52-.002-.083-.019-.158-.028-.24a12.07 12.07 0 0 0 1.763.118c.172 0 .351-.002.534-.008 1.634-.047 4.836-1.222 4.836-3.725 0-.889-.295-1.65-.851-2.205a2.918 2.918 0 0 0-.412-.334 9.776 9.776 0 0 0 2.302-1.872c.983-1.098 1.652-2.385 1.835-3.531.203-1.276-.31-2.569-1.367-3.459zm-45.03 12.422v3.101c-.71.59-2.516 1.48-3.27.748-.505-.488-.5-.837-.498-.952.01-.497.43-.985.593-1.133.02-.018.028-.042.047-.062a19.59 19.59 0 0 0 1.648-.99c.48-.316.615-.963.3-1.444a1.036 1.036 0 0 0-1.436-.302c-1.95 1.282-2.866 1.719-5.438 1.652-1.087-.032-2.818-.795-2.818-1.64 0-.436.134-.62.235-.72.491-.488 1.782-.475 2.394-.465.127.001.24.002.337.001.015 0 .03-.004.045-.005.304.064.601.121.882.173l.3.054c.34.064.366.069.93.13a1.035 1.035 0 0 0 1.144-.924 1.042 1.042 0 0 0-.92-1.15 7.461 7.461 0 0 1-.778-.107l-.307-.057c-.924-.167-2.009-.39-3.04-.775-1.005-.376-1.999-1.072-2.796-1.959C3.405 6.09 2.91 5.167 2.79 4.41c-.09-.548.146-1.105.649-1.527.387-.328 1.043.217 2.276 1.475.426.434.867.884 1.314 1.243 1.431 1.153 3.08 2.064 5.188 2.864.78.298 1.57.464 2.336.626 1.063.224 2.067.435 2.736.963.132.104.25.215.363.329a5.599 5.599 0 0 0-1.092 3.322zm5.597-3.537h19.38c.488 0 .952.1 1.374.281l-10.625 8.956a.677.677 0 0 1-.871.002L20.78 10.449c.422-.18.887-.28 1.374-.28zm-3.52 15.528V13.705c0-.691.206-1.332.549-1.878l8.99 7.573-9.032 8.096a3.512 3.512 0 0 1-.506-1.8zm22.9 3.536h-19.38a3.477 3.477 0 0 1-1.463-.33l9.09-8.147.299.252c.51.43 1.137.644 1.764.644.628 0 1.256-.214 1.771-.644l.297-.25L43 28.902c-.448.208-.94.33-1.464.33zm3.521-12.004v8.468c0 .66-.192 1.272-.507 1.801l-9.03-8.095 8.988-7.575c.343.545.55 1.187.55 1.878v3.523zm15.85-12.816c-.12.748-.617 1.67-1.327 2.464-.799.888-1.792 1.585-2.8 1.96-1.023.386-2.107.609-3.03.776l-.311.056c-.288.053-.31.057-.782.108-.57.063-.982.577-.92 1.15a1.04 1.04 0 0 0 1.145.924c.561-.06.587-.066.93-.13l.305-.055c.28-.05.577-.108.88-.171.015 0 .029.004.043.004.1.001.21 0 .337-.001.612-.01 1.903-.022 2.394.465.1.101.235.284.235.72 0 .846-1.731 1.61-2.818 1.64-2.581.068-3.488-.37-5.437-1.652a1.035 1.035 0 0 0-1.437.302 1.046 1.046 0 0 0 .3 1.444c.592.39 1.123.715 1.647.99.018.019.026.044.046.061.162.147.586.636.595 1.133.002.115.008.464-.502.955-.746.727-2.54-.15-3.266-.748v-3.103c0-1.243-.408-2.39-1.091-3.322.113-.116.235-.228.369-.333.662-.525 1.665-.736 2.728-.96.765-.161 1.557-.329 2.333-.625 2.108-.801 3.758-1.712 5.19-2.865.446-.359.887-.809 1.313-1.244 1.233-1.258 1.889-1.803 2.277-1.473.503.422.74.98.653 1.53z" fill-rule="nonzero" fill="#FFF"/></svg><svg width="48" height="60" viewBox="0 0 48 60" id="L1VzZXJzL2FsZmFtb3RvcnMvUHJvamVjdHMvc2N2dC1mcm9udGVuZC9zcmMvbW9kdWxlcy93b3JrL3Nwcml0ZS13b3JrLTMuc3Zn" x="209" xmlns="http://www.w3.org/2000/svg"><title>sprite-work-3</title><g fill-rule="nonzero" fill="#FFF"><path d="M11.774 25.725h24.452a4.84 4.84 0 0 0 4.835-4.834V4.835A4.84 4.84 0 0 0 36.226 0H11.774a4.84 4.84 0 0 0-4.835 4.835V20.89a4.84 4.84 0 0 0 4.835 4.834zm24.452-2H11.774c-.351 0-.685-.072-.995-.19l10.89-9.714.451.377c.543.455 1.21.683 1.879.683a2.95 2.95 0 0 0 1.887-.684l.447-.374 10.888 9.712c-.311.118-.644.19-.995.19zm2.835-18.89V20.89a2.8 2.8 0 0 1-.335 1.308l-10.845-9.675 10.808-9.067c.229.41.372.876.372 1.378zM11.774 2h24.452c.316 0 .614.064.898.16l-11.37 9.537-.001.001-1.149.964a.936.936 0 0 1-1.2.002L10.874 2.16c.284-.096.583-.16.899-.16zM8.939 4.835c0-.502.142-.967.372-1.376l10.808 9.065-10.845 9.674a2.795 2.795 0 0 1-.335-1.307V4.835z"/><circle cx="37.664" cy="51.429" r="1.393"/><path d="M47.672 23.104a2.357 2.357 0 0 0-.693-1.595 2.336 2.336 0 0 0-1.746-.693 4.07 4.07 0 0 0-3.926 4.187l.115 3.538-.564 2.282a2.98 2.98 0 0 0-1.996.866l-3.92 3.924-1.313.227a4.531 4.531 0 0 0-2.463 1.272l-2.73 2.729a4.57 4.57 0 0 0-1.341 3.132l-.098 4.404c-1.278.484-2.203 1.708-2.218 3.148l-.064 5.921a3.416 3.416 0 0 0 3.376 3.449l9.824.105h.037a3.424 3.424 0 0 0 3.412-3.375l.063-5.922a3.419 3.419 0 0 0-2.095-3.183A4.487 4.487 0 0 1 40.606 45l4.609-4.61a7.478 7.478 0 0 0 2.147-4.49l.49-4.643c.032-.167.05-.338.054-.516l.002-.018v-.031c0-.036.005-.07.004-.106l-.239-7.482zm-8.245 27.577l-.063 5.922A1.417 1.417 0 0 1 37.952 58v1l-.016-1-9.824-.105a1.415 1.415 0 0 1-1.397-1.428l.063-5.921a1.42 1.42 0 0 1 1.427-1.397h.001l9.825.105c.374.004.726.155.991.426s.409.627.405 1.001zm6.426-19.562c-.001.011-.004.023-.004.034l-.478 4.536a5.467 5.467 0 0 1-1.571 3.286l-4.61 4.61a6.477 6.477 0 0 0-1.838 3.653l-.001.009-8.348-.09.092-4.138a2.569 2.569 0 0 1 .756-1.764l2.729-2.729a2.588 2.588 0 0 1 1.387-.715l1.628-.282c.071-.012.138-.032.203-.058.004-.001.007-.004.011-.006.121-.05.228-.122.318-.211l.005-.003 4.145-4.148a1.012 1.012 0 0 1 1.428 0c.19.19.294.444.294.714 0 .272-.104.525-.294.714l-4.761 4.762a1 1 0 1 0 1.415 1.414l4.761-4.761c.567-.567.88-1.323.88-2.129a2.99 2.99 0 0 0-.88-2.128c-.107-.106-.226-.194-.345-.283l.623-2.52c.003-.01.002-.02.005-.032a.885.885 0 0 0 .014-.103.909.909 0 0 0 .008-.104l.002-.032-.12-3.674a2.065 2.065 0 0 1 1.982-2.126c.17.008.236.067.278.108a.358.358 0 0 1 .108.246l.236 7.41-.058.54zM21.004 47.382l-.098-4.41a4.568 4.568 0 0 0-1.342-3.131l-2.73-2.729a4.536 4.536 0 0 0-2.459-1.272l-1.316-.227-3.92-3.924a2.98 2.98 0 0 0-1.996-.866l-.564-2.282.114-3.539a4.072 4.072 0 0 0-3.936-4.186c-.636-.002-1.281.24-1.736.694a2.356 2.356 0 0 0-.692 1.597l-.24 7.488c0 .039.005.078.006.117v.017c.004.18.023.356.056.529l.49 4.64a7.476 7.476 0 0 0 2.147 4.491L7.398 45a4.487 4.487 0 0 1 1.271 2.521 3.419 3.419 0 0 0-2.094 3.182l.063 5.923A3.42 3.42 0 0 0 10.048 60l9.862-.105a3.416 3.416 0 0 0 3.375-3.448l-.063-5.923c-.015-1.434-.932-2.654-2.218-3.142zM4.201 38.975a5.467 5.467 0 0 1-1.572-3.286l-.478-4.536-.003-.034-.057-.542.236-7.405a.36.36 0 0 1 .108-.248.443.443 0 0 1 .266-.109 2.066 2.066 0 0 1 1.993 2.124l-.12 3.676c0 .012.003.022.003.033 0 .035.003.07.007.104.003.035.007.07.015.103l.004.032.623 2.52a3.015 3.015 0 0 0-.345.283 2.988 2.988 0 0 0-.879 2.128c0 .806.313 1.562.88 2.128l4.76 4.762a.997.997 0 0 0 1.415 0 1 1 0 0 0 0-1.414l-4.761-4.763a.999.999 0 0 1-.293-.713c0-.27.104-.525.293-.714a1.012 1.012 0 0 1 1.429 0l4.144 4.147.005.003c.09.09.199.163.32.213l.01.004c.063.026.131.046.202.059l1.632.282c.52.089 1.01.343 1.383.715l2.729 2.728a2.57 2.57 0 0 1 .757 1.764l.092 4.14-8.349.089-.002-.011a6.475 6.475 0 0 0-1.838-3.652l-4.61-4.61zm15.688 18.92L10.063 58l-.014 1v-1c-.77 0-1.404-.626-1.412-1.397l-.064-5.922c-.004-.375.14-.73.405-1.001a1.4 1.4 0 0 1 .991-.426l9.841-.105c.77 0 1.403.626 1.412 1.396l.063 5.923a1.414 1.414 0 0 1-1.396 1.427z"/><circle cx="10.336" cy="51.429" r="1.393"/><path d="M28.349 31.897a1 1 0 0 0-1.414 0L25 33.832v-4.554a1 1 0 0 0-2 0v4.554l-1.935-1.935a1 1 0 1 0-1.414 1.414l3.642 3.642c.093.093.204.167.327.218l.015.004a.99.99 0 0 0 .73 0l.015-.004a.997.997 0 0 0 .327-.218l3.642-3.642a1 1 0 0 0 0-1.414z"/></g></svg><svg width="107" height="108" viewBox="0 0 107 108" id="L1VzZXJzL2FsZmFtb3RvcnMvUHJvamVjdHMvc2N2dC1mcm9udGVuZC9zcmMvbW9kdWxlcy9jYWxsYmFjay9zcHJpdGUtY2FsbGJhY2suc3Zn" xmlns="http://www.w3.org/2000/svg"><title>sprite-callback</title><g fill-rule="nonzero" fill="#AE4030"><path d="M80.267 0C65.543 0 53.533 12.424 53.533 27.66a28.12 28.12 0 0 0 3.786 14.098l-5.817 15.586 16.635-5.077c3.647 1.935 7.765 3.048 12.131 3.048C94.99 55.317 107 42.891 107 27.66 107 12.424 94.99 0 80.267 0zM90.75 38.708H66.294a1.844 1.844 0 0 1-1.845-1.843c0-1.017.827-1.843 1.845-1.843h24.459c1.018 0 1.844.826 1.844 1.843a1.846 1.846 0 0 1-1.846 1.843zM64.449 27.603c0-1.019.827-1.843 1.845-1.843h19.024a1.843 1.843 0 1 1 0 3.686H66.294a1.844 1.844 0 0 1-1.845-1.843zm31.737-7.321H66.294a1.843 1.843 0 0 1 0-3.686h29.892a1.843 1.843 0 1 1 0 3.686zM93.902 89.112L76.645 71.874a3.66 3.66 0 0 0-2.56-1.109l-3.694-.118a3.657 3.657 0 0 0-2.806 1.11l-1.878 1.872 26.437 26.407 1.876-1.874a3.666 3.666 0 0 0 1.112-2.805l-.12-3.685a3.664 3.664 0 0 0-1.11-2.56zM36.092 40.3a3.66 3.66 0 0 0 1.11-2.803l-.12-3.69c-.032-1-.4-1.851-1.11-2.559L18.72 14.013a3.67 3.67 0 0 0-2.564-1.112l-3.69-.12a3.675 3.675 0 0 0-2.81 1.112l-1.872 1.872 26.435 26.407c.583-.58 1.199-1.196 1.874-1.872zM61.348 77.976c-.875.872-2 1.244-3.223 1.067l-3.094-.446a3.665 3.665 0 0 1-2.142-1.073L41.861 66.508l.004-.002-11.543-11.53a3.631 3.631 0 0 1-1.074-2.14l-.447-3.09c-.177-1.22.196-2.346 1.069-3.221.459-.46 1.064-1.065 1.741-1.745L5.177 18.373 2.505 21.04c-9.198 9.188 8.693 41.625 25.418 58.332l.017.015.528.532c16.727 16.707 49.197 34.582 58.394 25.392l2.675-2.67-26.438-26.41-1.751 1.744z"/></g></svg><svg width="44" height="39" viewBox="0 0 44 39" id="L1VzZXJzL2FsZmFtb3RvcnMvUHJvamVjdHMvc2N2dC1mcm9udGVuZC9zcmMvbW9kdWxlcy9mYWN0cy9pY29ucy9zcHJpdGUtZmFjdHMtMS5zdmc=" x="60" y="148" xmlns="http://www.w3.org/2000/svg"><title>sprite-facts-1</title><path d="M20.997 7.099L22 8.524l1.003-1.425c2.009-2.855 5.133-4.68 8.347-4.68 5.605 0 10.206 4.625 10.206 10.225 0 2.088-1.162 4.722-3.347 7.739-1.705 2.356-3.976 4.87-6.672 7.464a108.341 108.341 0 0 1-7.063 6.196c-.843.68-2.474 2.032-2.474 2.032s-1.631-1.352-2.474-2.032a108.341 108.341 0 0 1-7.063-6.196c-2.696-2.595-4.967-5.108-6.672-7.464-2.185-3.017-3.347-5.65-3.347-7.739 0-5.6 4.6-10.225 10.206-10.225 3.214 0 6.338 1.825 8.347 4.68zM3.804 21.792c1.8 2.487 4.164 5.103 6.955 7.79 2.3 2.213 4.762 4.352 7.222 6.336.862.695 1.662 1.321 2.38 1.869.434.33.745.562.914.685L22 39l.725-.528c.169-.123.48-.355.913-.685.72-.548 1.52-1.174 2.38-1.869a110.734 110.734 0 0 0 7.223-6.337c2.791-2.686 5.155-5.302 6.955-7.79C42.651 18.402 44 15.345 44 12.645 44 5.716 38.314 0 31.35 0 27.285 0 24.443.978 22 4.448 19.576 1.708 16.197 0 12.65 0 5.686 0 0 5.716 0 12.644c0 2.7 1.349 5.758 3.804 9.148z" fill-rule="nonzero" fill="#FFF"/></svg><svg width="65" height="40" viewBox="0 0 65 40" id="L1VzZXJzL2FsZmFtb3RvcnMvUHJvamVjdHMvc2N2dC1mcm9udGVuZC9zcmMvbW9kdWxlcy9mYWN0cy9pY29ucy9zcHJpdGUtZmFjdHMtMi5zdmc=" x="60" y="108" xmlns="http://www.w3.org/2000/svg"><title>sprite-facts-2</title><path d="M64.672 16.618a1.33 1.33 0 0 0-1.628-.946l-7.954 2.12a1.328 1.328 0 0 0-.633.381l-4.533 4.893c-.024-.016-.042-.037-.066-.052L33.346 12.289a3.142 3.142 0 0 0-3.168-.148l-7.674 4.02a.486.486 0 0 1-.609-.726l3.611-4.709a3.784 3.784 0 0 1 2.314-1.42l4.237-.789a17.699 17.699 0 0 1 6.924.081l4.505.948c.611.13 1.243.073 1.824-.162.1-.04.194-.093.281-.156l8.957-6.496A1.336 1.336 0 0 0 54.846.87 1.328 1.328 0 0 0 52.988.57l-8.782 6.37a.485.485 0 0 1-.173-.004l-4.505-.948a20.345 20.345 0 0 0-7.957-.093l-4.237.789a6.435 6.435 0 0 0-3.116 1.532l-3.806-.606a.44.44 0 0 1-.063-.014L11.763.616a1.327 1.327 0 0 0-1.87.196 1.335 1.335 0 0 0 .194 1.875l8.726 7.094c.07.057.145.107.226.149.3.155.62.261.954.315l2.252.358-2.46 3.207a3.136 3.136 0 0 0-.623 2.341 3.133 3.133 0 0 0 1.22 2.094c.964.732 2.281.84 3.355.28l7.675-4.02a.482.482 0 0 1 .487.022L48.41 25.251c.302.197.51.5.583.852.073.353.005.714-.193 1.014a1.337 1.337 0 0 1-1.806.413l-.925-.555-.284-.17-7.72-4.63a1.328 1.328 0 0 0-1.825.459 1.335 1.335 0 0 0 .459 1.828l7.143 4.284v.001l.577.346.284.17a.746.746 0 0 1 .24 1.054 1.63 1.63 0 0 1-2.128.533l-6.98-3.813a1.327 1.327 0 0 0-1.805.533 1.334 1.334 0 0 0 .532 1.809l5.035 2.75 1.233.755c.222.136.291.34.313.45a.675.675 0 0 1-.122.537c-.019.025-.037.05-.053.077-.4.626-1.2.844-1.86.509l-5.406-2.75a1.33 1.33 0 0 0-1.788.585 1.335 1.335 0 0 0 .584 1.792l4.019 2.045a4.31 4.31 0 0 1-2.478.358l-3.615-.554.03-.042a3.41 3.41 0 0 0-.627-4.555c-.34-.28-.731-.48-1.145-.609.272-1.32-.182-2.743-1.28-3.634a3.687 3.687 0 0 0-1.913-.786 3.737 3.737 0 0 0-.063-.638 3.669 3.669 0 0 0-1.605-2.373c-1.55-1.01-3.606-.676-4.791.694a3.73 3.73 0 0 0-.918-.819 3.636 3.636 0 0 0-4.213.288l-3.653-4.827a1.33 1.33 0 0 0-.657-.465L1.797 15.69a1.334 1.334 0 0 0-.805 2.542l7.39 2.349 3.817 5.045-.995 1.425c-1.143 1.64-.751 3.918.933 5.12.54.384 1.159.6 1.8.655.076 1.075.598 2.112 1.54 2.776a3.653 3.653 0 0 0 2.782.615c.112-.02.216-.063.324-.093a3.697 3.697 0 0 0 1.593 1.697c.556.3 1.157.444 1.75.444a3.68 3.68 0 0 0 1.39-.278 3.354 3.354 0 0 0 1.54 1.307c.412.17.846.253 1.275.253.967 0 1.898-.435 2.549-1.183l4.957.76a6.925 6.925 0 0 0 5.878-1.855c.083.005.166.014.248.014a4.08 4.08 0 0 0 3.422-1.86 3.35 3.35 0 0 0 .609-1.729 4.287 4.287 0 0 0 3.372-1.912 3.39 3.39 0 0 0 .519-1.393 3.99 3.99 0 0 0 3.335-1.803 3.987 3.987 0 0 0 .577-3.029c-.02-.098-.061-.187-.088-.283l4.636-5.004 7.583-2.02c.71-.19 1.133-.92.944-1.632zM13.385 28.58l1.998-2.864a.978.978 0 0 1 .807-.42c.185 0 .374.05.548.158a.978.978 0 0 1 .318 1.358l-2.036 2.989a.972.972 0 0 1-.591.366c-.261.05-.53-.013-.807-.21a.997.997 0 0 1-.237-1.377zm3.62 4.838a1.036 1.036 0 0 1-.258-1.424l.431-.632c.027-.037.062-.067.088-.105.62-.909 1.354-1.99 1.974-2.906.017-.024.025-.05.041-.075l1.678-2.462a1.03 1.03 0 0 1 1.699 1.162l-.577.847c-.012.017-.029.03-.04.048l-3.157 4.597c-.056.083-.092.175-.14.26l-.294.43a1.026 1.026 0 0 1-1.446.26zm4.43 2.054a1.016 1.016 0 0 1-.511-.665 1.008 1.008 0 0 1 .095-.689l3.238-4.759a1.015 1.015 0 0 1 1.47-.194c.415.337.503.946.2 1.386l-.948 1.383c-.022.03-.05.053-.071.083l-1.537 2.21c-.05.074-.08.157-.125.233l-.473.69a1.025 1.025 0 0 1-1.337.322zm5.3 1.104a.724.724 0 0 1-.865.253.724.724 0 0 1-.409-.891l1.691-2.465a.726.726 0 0 1 .53-.24c.123 0 .294.03.457.164a.725.725 0 0 1 .133.968l-1.538 2.21z" fill-rule="nonzero" fill="#FFF"/></svg><svg width="34" height="53" viewBox="0 0 34 53" id="L1VzZXJzL2FsZmFtb3RvcnMvUHJvamVjdHMvc2N2dC1mcm9udGVuZC9zcmMvbW9kdWxlcy9mYWN0cy9pY29ucy9zcHJpdGUtZmFjdHMtMy5zdmc=" x="209" y="118" xmlns="http://www.w3.org/2000/svg"><title>sprite-facts-3</title><g fill-rule="nonzero" fill="#FFF"><path d="M33.623 16.677C33.623 7.484 26.08 0 16.812 0 7.544 0 0 7.484 0 16.677c0 4.773 2.08 9.134 5.346 12.198l-.772 21.98c0 .648.416 1.296 1.01 1.532.594.236 1.248.177 1.782-.236l9.505-6.364 9.445 6.423c.297.236.713.354 1.07.354.237 0 .475-.059.712-.177.594-.294 1.01-.884 1.01-1.59l-.772-21.922c3.267-3.064 5.287-7.366 5.287-12.198zM17.881 43.666a1.794 1.794 0 0 0-2.139 0L6.95 49.559l.654-18.916c2.673 1.709 5.821 2.71 9.208 2.71 3.386 0 6.534-1.001 9.207-2.71l.654 18.916-8.792-5.893zm-1.07-12.61c-7.96 0-14.435-6.424-14.435-14.32 0-7.897 6.475-14.379 14.436-14.379 7.96 0 14.435 6.423 14.435 14.32 0 7.896-6.475 14.378-14.435 14.378z"/><path d="M15.239 18.822l-3.861-3.89-1.664 1.71 5.525 5.48 8.495-8.427-1.664-1.65z"/></g></svg><svg width="51" height="51" viewBox="0 0 51 51" id="L1VzZXJzL2FsZmFtb3RvcnMvUHJvamVjdHMvc2N2dC1mcm9udGVuZC9zcmMvbW9kdWxlcy9mYWN0cy9pY29ucy9zcHJpdGUtZmFjdHMtNC5zdmc=" x="86" y="189" xmlns="http://www.w3.org/2000/svg"><title>sprite-facts-4</title><path d="M25.5 48C37.926 48 48 37.926 48 25.5S37.926 3 25.5 3 3 13.074 3 25.5 13.074 48 25.5 48zm0 3C11.417 51 0 39.583 0 25.5S11.417 0 25.5 0 51 11.417 51 25.5 39.583 51 25.5 51zM27 25.757l6.546 6.546-2.121 2.122L24 27V9h3v16.757z" fill-rule="nonzero" fill="#FFF"/></svg><svg width="46" height="44" viewBox="0 0 46 44" id="L1VzZXJzL2FsZmFtb3RvcnMvUHJvamVjdHMvc2N2dC1mcm9udGVuZC9zcmMvbW9kdWxlcy9mYWN0cy9pY29ucy9zcHJpdGUtZmFjdHMtNS5zdmc=" y="242" xmlns="http://www.w3.org/2000/svg"><title>sprite-facts-5</title><path d="M30.756 14.457c-.79 0-1.636-.626-1.886-1.386L25.282 2.163c-.942-2.846-3.617-2.803-4.558.04l-3.588 10.872c-.251.764-1.087 1.382-1.886 1.382H2.83c-2.98 0-3.836 2.466-1.454 4.263l9.947 7.476c.632.475.942 1.473.69 2.234L8.137 40.12c-.958 2.895 1.241 4.43 3.606 2.525l10.139-8.172c.619-.499 1.634-.49 2.241 0l10.139 8.163c2.36 1.902 4.565.358 3.607-2.535l-3.876-11.708c-.252-.76.064-1.765.69-2.232l9.948-7.44c2.373-1.793 1.516-4.264-1.454-4.264h-12.42zm-6.63 16.297c-.62-.5-1.618-.508-2.247 0l-9.253 7.454c-.62.5-.92.288-.665-.479l3.441-10.396c.253-.764-.07-1.775-.696-2.239l-9.284-6.88c-.637-.472-.513-.855.288-.855h11.605c.796 0 1.647-.624 1.896-1.385l3.337-10.175c.251-.765.66-.761.909 0l3.337 10.175c.25.765 1.095 1.385 1.896 1.385h11.605c.796 0 .914.394.288.86L31.3 25.13c-.637.474-.95 1.475-.696 2.24l3.442 10.371c.253.763-.036.982-.666.475l-9.254-7.463z" fill-rule="nonzero" fill="#FFF"/></svg><svg width="49" height="41" viewBox="0 0 49 41" id="L1VzZXJzL2FsZmFtb3RvcnMvUHJvamVjdHMvc2N2dC1mcm9udGVuZC9zcmMvbW9kdWxlcy9mYWN0cy9pY29ucy9zcHJpdGUtZmFjdHMtNi5zdmc=" x="186" y="189" xmlns="http://www.w3.org/2000/svg"><title>sprite-facts-6</title><g fill-rule="nonzero" fill="#FFF"><path d="M49 41H0V0h49v41zM1.96 39.048h45.08V1.952H1.96v37.096z"/><path d="M9.8 16.595H7.84V7.81h8.82v1.952H9.8zM41.16 33.19h-8.82v-1.952h6.86v-6.833h1.96z"/><path d="M9.51 8.08l7.84 7.84-1.38 1.38-7.84-7.84zM33.03 23.699l7.84 7.84-1.38 1.38-7.84-7.84z"/></g></svg><svg width="49" height="49" viewBox="0 0 49 49" id="L1VzZXJzL2FsZmFtb3RvcnMvUHJvamVjdHMvc2N2dC1mcm9udGVuZC9zcmMvbW9kdWxlcy9mYWN0cy9pY29ucy9zcHJpdGUtZmFjdHMtNy5zdmc=" x="137" y="189" xmlns="http://www.w3.org/2000/svg"><title>sprite-facts-7</title><path d="M24.5 49C10.969 49 0 38.031 0 24.5S10.969 0 24.5 0 49 10.969 49 24.5 38.031 49 24.5 49zm0-3.5c11.598 0 21-9.402 21-21s-9.402-21-21-21-21 9.402-21 21 9.402 21 21 21zM21 28.3l-4.95-4.95-2.475 2.475 6.188 6.188L21 33.25 35.85 18.4l-2.476-2.474L21 28.3z" fill-rule="nonzero" fill="#FFF"/></svg><svg width="37" height="48" viewBox="0 0 37 48" id="L1VzZXJzL2FsZmFtb3RvcnMvUHJvamVjdHMvc2N2dC1mcm9udGVuZC9zcmMvbW9kdWxlcy9mYWN0cy9pY29ucy9zcHJpdGUtZmFjdHMtOC5zdmc=" x="257" xmlns="http://www.w3.org/2000/svg"><title>sprite-facts-8</title><path d="M0 18.462C0 8.266 8.283 0 18.5 0S37 8.266 37 18.462 18.5 48 18.5 48 0 28.658 0 18.462zm18.5 24s4.333-5.038 6.298-7.633c1.735-2.293 3.27-4.506 4.551-6.59 2.567-4.18 3.951-7.622 3.951-9.777 0-8.157-6.626-14.77-14.8-14.77S3.7 10.305 3.7 18.462c0 2.155 1.384 5.597 3.95 9.776 1.281 2.085 2.817 4.298 4.552 6.59 1.965 2.596 6.298 7.634 6.298 7.634zM18.5 24c3.065 0 5.55-2.48 5.55-5.538a5.544 5.544 0 0 0-5.55-5.539 5.544 5.544 0 0 0-5.55 5.539A5.544 5.544 0 0 0 18.5 24z" fill-rule="nonzero" fill="#FFF"/></svg><svg width="51" height="51" viewBox="0 0 51 51" id="L1VzZXJzL2FsZmFtb3RvcnMvUHJvamVjdHMvc2N2dC1mcm9udGVuZC9zcmMvbW9kdWxlcy9mYWN0cy9pY29ucy9zcHJpdGUtZmFjdHMtOS5zdmc=" x="35" y="189" xmlns="http://www.w3.org/2000/svg"><title>sprite-facts-9</title><g fill-rule="nonzero" fill="#FFF"><path d="M36.723 33.782h-1.899c-.633 0-1.055.42-1.055 1.048 0 .63.422 1.049 1.055 1.049h1.9c.633 0 1.055-.42 1.055-1.049s-.422-1.048-1.056-1.048z"/><path d="M50.336 13.864L37.04.653A1.196 1.196 0 0 0 35.88.34c-2.217.734-4.01 1.887-5.594 3.145-.105 0-.105.105-.21.105 0 0 0 .105-.106.105-2.744 2.41-4.643 5.66-6.543 8.806-.105.21-.317.419-.422.629H4.643C2.111 13.13 0 15.226 0 17.742v28.305c0 2.516 2.11 4.613 4.643 4.613h30.603c2.533 0 4.643-2.097 4.643-4.613v-5.765h1.267c.633 0 1.055-.42 1.055-1.049v-8.91c0-.63-.422-1.049-1.055-1.049h-1.372v-4.298l.105-.105c1.689-2.726 3.272-4.822 5.171-6.5a15.155 15.155 0 0 1 4.749-2.725 1.27 1.27 0 0 0 .739-.734c.21-.42.105-.734-.212-1.049zM35.985 2.646l1.688 1.678c-1.477 1.048-3.482 1.048-5.065.21.95-.84 2.11-1.468 3.377-1.888zM4.643 15.331h17.201c-1.16 1.782-2.427 3.564-3.904 5.032H4.643c-1.372 0-2.427-1.048-2.532-2.411v-.105c0-1.363 1.16-2.516 2.532-2.516zM40.1 38.185h-5.17c-1.9 0-3.377-1.468-3.377-3.355s1.477-3.354 3.377-3.354h5.17v6.709zm-5.17-8.806c-3.06 0-5.488 2.411-5.488 5.451 0 3.04 2.427 5.452 5.488 5.452h2.743v5.765c0 1.363-1.16 2.516-2.532 2.516H4.538c-1.267 0-2.427-1.153-2.427-2.516V21.726c.738.42 1.582.734 2.532.734H35.141c1.371 0 2.532 1.153 2.532 2.516v4.403H34.93zm4.115-7.024c-.844-1.258-2.216-1.992-3.799-1.992H20.894c1.689-2.096 3.166-4.403 4.538-6.71 1.688-2.83 3.377-5.555 5.593-7.757 1.16.839 2.638 1.363 4.01 1.363 1.477 0 2.955-.524 4.221-1.468l3.8 3.774c-1.795 2.412-1.795 5.661 0 7.968-1.69 1.467-2.956 3.145-4.01 4.822zm5.487-6.185a4.563 4.563 0 0 1 0-5.137l3.272 3.25a14.039 14.039 0 0 0-3.272 1.887z"/></g></svg><svg width="102" height="102" viewBox="0 0 102 102" id="L1VzZXJzL2FsZmFtb3RvcnMvUHJvamVjdHMvc2N2dC1mcm9udGVuZC9zcmMvbW9kdWxlcy9mYWN0cy9pY29ucy9zcHJpdGUtZmFjdHMtY2lyY2xlLnN2Zw==" x="107" xmlns="http://www.w3.org/2000/svg"><title>sprite-work-circle</title><defs><linearGradient x1="0%" y1="0%" x2="102%" y2="101%" id="ana"><stop stop-color="#FEB984" offset="0%"/><stop stop-color="#FF5542" offset="100%"/></linearGradient></defs><circle cx="51" cy="51" r="50" stroke="url(#ana)" stroke-width="2" fill="none" fill-rule="evenodd"/></svg><svg viewBox="0 0 24 24" width="24" height="24" id="L1VzZXJzL2FsZmFtb3RvcnMvUHJvamVjdHMvc2N2dC1mcm9udGVuZC9zcmMvbW9kdWxlcy9mb290ZXIvaWNvbnMvc3ByaXRlLWljb24tZmIuc3Zn" x="231" y="60" xmlns="http://www.w3.org/2000/svg"><title/><path d="M21 1H3a2 2 0 0 0-2 2v18a2 2 0 0 0 2 2h7.5a.5.5 0 0 0 .5-.5v-7a.5.5 0 0 0-.5-.5h-1a.5.5 0 0 1-.5-.5v-3a.5.5 0 0 1 .5-.5h1a.5.5 0 0 0 .5-.5v-1A4.5 4.5 0 0 1 15.5 5h3a.5.5 0 0 1 .5.5v3a.5.5 0 0 1-.5.5h-3a.5.5 0 0 0-.5.5v1a.5.5 0 0 0 .5.5h3a.5.5 0 0 1 .49.58l-.5 3A.5.5 0 0 1 18 15h-2.5a.5.5 0 0 0-.5.5v7a.5.5 0 0 0 .5.5H21a2 2 0 0 0 2-2V3a2 2 0 0 0-2-2z" fill="#303c42"/></svg><svg viewBox="0 0 24 24" width="24" height="24" id="L1VzZXJzL2FsZmFtb3RvcnMvUHJvamVjdHMvc2N2dC1mcm9udGVuZC9zcmMvbW9kdWxlcy9mb290ZXIvaWNvbnMvc3ByaXRlLWljb24taW5zLnN2Zw==" x="257" y="164" xmlns="http://www.w3.org/2000/svg"><title/><path d="M17 23H7a6 6 0 0 1-6-6V7a6 6 0 0 1 6-6h10a6 6 0 0 1 6 6v10a6 6 0 0 1-6 6zM7 3a4 4 0 0 0-4 4v10a4 4 0 0 0 4 4h10a4 4 0 0 0 4-4V7a4 4 0 0 0-4-4z" fill="#303c42"/><path d="M12 18a6 6 0 1 1 6-6 6 6 0 0 1-6 6zm0-10a4 4 0 1 0 4 4 4 4 0 0 0-4-4z" fill="#303c42" data-name="&lt;Group>"/><circle cx="18" cy="5" r="1" fill="#303c42" data-name="&lt;Group>"/></svg><svg viewBox="0 0 24 24" width="24" height="24" id="L1VzZXJzL2FsZmFtb3RvcnMvUHJvamVjdHMvc2N2dC1mcm9udGVuZC9zcmMvbW9kdWxlcy9mb290ZXIvaWNvbnMvc3ByaXRlLWljb24tb2suc3Zn" x="257" y="212" xmlns="http://www.w3.org/2000/svg"><title/><g fill="#303c42"><path d="M12 12a6 6 0 1 0-6-6 6 6 0 0 0 6 6zm0-9a3 3 0 1 1-3 3 3 3 0 0 1 3-3z"/><path d="M18.8 15.52A2.66 2.66 0 0 0 20 13.3a1.94 1.94 0 0 0-2-2 2 2 0 0 0-1.21.41 8.06 8.06 0 0 1-9.65 0A2 2 0 0 0 6 11.35a1.94 1.94 0 0 0-2 2 2.66 2.66 0 0 0 1.2 2.22A12.31 12.31 0 0 0 8.33 17l.64.18-3.28 3.22a2.11 2.11 0 0 0 0 3 2.15 2.15 0 0 0 3 0L12 19.93l3.33 3.45a2.11 2.11 0 1 0 3-3L15 17.19l.65-.18a12.29 12.29 0 0 0 3.15-1.49z"/></g></svg><svg viewBox="0 0 24 24" width="24" height="24" id="L1VzZXJzL2FsZmFtb3RvcnMvUHJvamVjdHMvc2N2dC1mcm9udGVuZC9zcmMvbW9kdWxlcy9mb290ZXIvaWNvbnMvc3ByaXRlLWljb24tdmsuc3Zn" x="257" y="188" xmlns="http://www.w3.org/2000/svg"><title/><path d="M20 13c.24-.45 1.09-1.74 1.73-2.7C23.65 7.46 24 6.86 24 6.5a.5.5 0 0 0-.5-.5H19a.5.5 0 0 0-.49.41c-.25 1.38-3.49 5.34-4 5.59-.21 0-.5-.52-.5-1.5V6.28a1.18 1.18 0 0 0-.24-.93C13.43 5 12.92 5 11.5 5 8.92 5 8 5.77 8 6.5a.46.46 0 0 0 .45.5S9 7.36 9 9.5a14.61 14.61 0 0 1-.13 2.5C7.6 11.77 5.84 8.6 5 6.32A.5.5 0 0 0 4.5 6h-4a.5.5 0 0 0-.5.59C.56 9.61 6.91 19 11 19h2c1.06 0 1.14-1.15 1.2-1.91s.11-1.09.3-1.09c.62 0 1.89 1.1 2.72 1.82S18.59 19 19 19h2.5c1.29 0 2.5 0 2.5-1 0-.38-.33-.82-2.23-3-.63-.69-1.48-1.64-1.77-2z" fill="#303c42" data-name="VK Logo"/></svg><svg width="30" height="81" viewBox="0 0 30 81" id="L1VzZXJzL2FsZmFtb3RvcnMvUHJvamVjdHMvc2N2dC1mcm9udGVuZC9zcmMvbW9kdWxlcy9zbGlkZXIvc3ByaXRlLWFycm93LWxlZnQuc3Zn" y="108" xmlns="http://www.w3.org/2000/svg"><title>Combined Shape Copy</title><path d="M.776 38.391c.045-.093.095-.185.147-.276l20.26-35.09A4.647 4.647 0 1 1 29.23 7.67L10.011 40.96l18.92 32.77a4.647 4.647 0 1 1-8.048 4.646L.623 43.286a4.647 4.647 0 0 1 .153-4.895z" fill="#D8D8D8" fill-rule="evenodd"/></svg><svg width="30" height="80" viewBox="0 0 30 80" id="L1VzZXJzL2FsZmFtb3RvcnMvUHJvamVjdHMvc2N2dC1mcm9udGVuZC9zcmMvbW9kdWxlcy9zbGlkZXIvc3ByaXRlLWFycm93LXJpZ2h0LnN2Zw==" x="30" y="108" xmlns="http://www.w3.org/2000/svg"><title>Combined Shape</title><path d="M29.553 39.85a4.625 4.625 0 0 0-.622-2.435L8.671 2.325A4.647 4.647 0 0 0 .624 6.97l18.983 32.88L.623 72.73a4.647 4.647 0 0 0 8.049 4.646l20.26-35.09c.443-.768.642-1.61.621-2.436z" fill="#D8D8D8" fill-rule="evenodd"/></svg><svg width="40" height="40" viewBox="0 0 40 40" id="L1VzZXJzL2FsZmFtb3RvcnMvUHJvamVjdHMvc2N2dC1mcm9udGVuZC9zcmMvc3ByaXRlcy9zcHJpdGUtY2xvc2Uuc3Zn" x="46" y="242" xmlns="http://www.w3.org/2000/svg"><title>sprite-close</title><path d="M19.799 17.11l-7.21-7.21a1.901 1.901 0 1 0-2.69 2.688L17.11 19.8l-7.21 7.21a1.901 1.901 0 1 0 2.688 2.69l7.211-7.211 7.21 7.21a1.901 1.901 0 1 0 2.69-2.688l-7.211-7.211 7.21-7.21a1.901 1.901 0 1 0-2.688-2.69l-7.211 7.211z" fill="#000" fill-rule="evenodd"/></svg><svg width="31" height="13" viewBox="0 0 31 13" id="L1VzZXJzL2FsZmFtb3RvcnMvUHJvamVjdHMvc2N2dC1mcm9udGVuZC9zcmMvc3ByaXRlcy9zcHJpdGUtYXJyb3ctZG93bi13aGl0ZS5zdmc=" x="257" y="79" xmlns="http://www.w3.org/2000/svg"><title>Combined Shape Copy</title><path d="M15.245 12.152a1.758 1.758 0 0 1-.926-.236L.982 4.216a1.766 1.766 0 0 1 1.766-3.059l12.497 7.215L27.74 1.157a1.766 1.766 0 1 1 1.766 3.059l-13.337 7.7a1.758 1.758 0 0 1-.925.236z" fill="#FFF" fill-rule="evenodd"/></svg><svg width="31" height="12" viewBox="0 0 31 12" id="L1VzZXJzL2FsZmFtb3RvcnMvUHJvamVjdHMvc2N2dC1mcm9udGVuZC9zcmMvc3ByaXRlcy9zcHJpdGUtYXJyb3ctZG93bi1yZWQuc3Zn" x="257" y="92" xmlns="http://www.w3.org/2000/svg"><title>sprites-arrow-down-red</title><path d="M15.245 11.232a1.758 1.758 0 0 1-.926-.236L.982 3.296A1.766 1.766 0 1 1 2.748.236l12.497 7.216L27.74.237a1.766 1.766 0 1 1 1.766 3.059l-13.337 7.7a1.758 1.758 0 0 1-.925.236z" fill="#FF5844" fill-rule="evenodd"/></svg><svg viewBox="0 0 15 31" width="15" height="31" id="L1VzZXJzL2FsZmFtb3RvcnMvUHJvamVjdHMvc2N2dC1mcm9udGVuZC9zcmMvc3ByaXRlcy9zcHJpdGUtZmlsZS13aGl0ZS5zdmc=" x="257" y="48" xmlns="http://www.w3.org/2000/svg"><path fill="#FFF" d="M15 8.5v17.12a6 6 0 0 1-1.06 3.3A4.91 4.91 0 0 1 9.68 31a5 5 0 0 1-4.27-1.93 5.83 5.83 0 0 1-1-3.35V8.5a4 4 0 0 1 .93-2.91 3.21 3.21 0 0 1 2.35-.84c.88 0 2.93.36 2.94 3.76v17.14a.71.71 0 0 1-1.43 0V8.5C9.18 6.16 8 6.16 7.67 6.16a1.85 1.85 0 0 0-1.34.43 2.77 2.77 0 0 0-.51 1.91v17.22a4.4 4.4 0 0 0 .77 2.52 3.63 3.63 0 0 0 3.12 1.35 3.52 3.52 0 0 0 3.06-1.47 4.63 4.63 0 0 0 .8-2.49V8.5c0-2.64-.8-7.08-6.14-7.08-5 0-6 3.85-6 7.08v14.19a.71.71 0 0 1-1.43 0V8.49C0 3.1 2.71 0 7.43 0S15 3.18 15 8.5z"/></svg><svg viewBox="0 0 15 31" width="15" height="31" id="L1VzZXJzL2FsZmFtb3RvcnMvUHJvamVjdHMvc2N2dC1mcm9udGVuZC9zcmMvc3ByaXRlcy9zcHJpdGUtZmlsZS1ibGFjay5zdmc=" x="272" y="48" xmlns="http://www.w3.org/2000/svg"><path d="M15 8.5v17.12a6 6 0 0 1-1.06 3.3A4.91 4.91 0 0 1 9.68 31a5 5 0 0 1-4.27-1.93 5.83 5.83 0 0 1-1-3.35V8.5a4 4 0 0 1 .93-2.91 3.21 3.21 0 0 1 2.35-.84c.88 0 2.93.36 2.94 3.76v17.14a.71.71 0 0 1-1.43 0V8.5C9.18 6.16 8 6.16 7.67 6.16a1.85 1.85 0 0 0-1.34.43 2.77 2.77 0 0 0-.51 1.91v17.22a4.4 4.4 0 0 0 .77 2.52 3.63 3.63 0 0 0 3.12 1.35 3.52 3.52 0 0 0 3.06-1.47 4.63 4.63 0 0 0 .8-2.49V8.5c0-2.64-.8-7.08-6.14-7.08-5 0-6 3.85-6 7.08v14.19a.71.71 0 0 1-1.43 0V8.49C0 3.1 2.71 0 7.43 0S15 3.18 15 8.5z"/></svg><svg width="30" height="30" viewBox="0 0 30 30" id="L1VzZXJzL2FsZmFtb3RvcnMvUHJvamVjdHMvc2N2dC1mcm9udGVuZC9zcmMvc3ByaXRlcy9zcHJpdGUtbWludXMuc3Zn" x="257" y="104" xmlns="http://www.w3.org/2000/svg"><title>sprite-minus</title><g fill="none" fill-rule="evenodd"><circle fill="#FFF" cx="15" cy="15" r="15"/><path fill="#FF5944" d="M8.452 14.868h12v1.368h-12z"/></g></svg><svg width="17" height="10" viewBox="0 0 17 10" id="L1VzZXJzL2FsZmFtb3RvcnMvUHJvamVjdHMvc2N2dC1mcm9udGVuZC9zcmMvc3ByaXRlcy9zcHJpdGUtc2VsZWN0LWFycm93LnN2Zw==" x="231" y="84" xmlns="http://www.w3.org/2000/svg"><title>sprite-select-arrow</title><g fill="#FFF" fill-rule="evenodd"><path d="M.399.615a1.155 1.155 0 0 0 0 1.633L7.69 9.54a1.155 1.155 0 1 0 1.633-1.633L2.032.615a1.155 1.155 0 0 0-1.633 0z"/><path d="M16.516.615a1.155 1.155 0 0 1 0 1.633L9.224 9.54a1.155 1.155 0 0 1-1.633-1.633L14.883.615a1.155 1.155 0 0 1 1.633 0z"/></g></svg><svg width="30" height="30" viewBox="0 0 30 30" id="L1VzZXJzL2FsZmFtb3RvcnMvUHJvamVjdHMvc2N2dC1mcm9udGVuZC9zcmMvc3ByaXRlcy9zcHJpdGUtcGx1cy5zdmc=" x="257" y="134" xmlns="http://www.w3.org/2000/svg"><title>sprite-plus</title><g fill="none" fill-rule="evenodd"><circle fill="#FFF" cx="15" cy="15" r="15"/><path fill="#FF5944" d="M9.844 14.892h4.728V9.684h1.392v5.208h4.728v1.344h-4.728v5.232h-1.392v-5.232H9.844z"/></g></svg><svg width="22" height="58" viewBox="0 0 22 58" id="L1VzZXJzL2FsZmFtb3RvcnMvUHJvamVjdHMvc2N2dC1mcm9udGVuZC9zcmMvc3ByaXRlcy9zcHJpdGUtdG8tdG9wLnN2Zw==" x="209" y="60" xmlns="http://www.w3.org/2000/svg"><title>Shape</title><path d="M.275 10.782l2.182 2.18L9.46 5.964v51.62h3.08V5.965l7.003 6.996 2.182-2.18L11 .074z" fill-rule="nonzero" fill="#FF5844"/></svg></svg>