<?xml version="1.0" encoding="UTF-8"?>
<svg width="40px" height="40px" viewBox="0 0 40 40" version="1.1" xmlns="http://www.w3.org/2000/svg" xmlns:xlink="http://www.w3.org/1999/xlink">
    <!-- Generator: Sketch 44.1 (41455) - http://www.bohemiancoding.com/sketch -->
    <title>sprite-close</title>
    <desc>Created with Sketch.</desc>
    <defs></defs>
    <g id="Symbols" stroke="none" stroke-width="1" fill="none" fill-rule="evenodd">
        <g id="sprite-close" fill="#000000">
            <path d="M19.7989899,17.1102382 L12.5882466,9.89949494 C11.8457684,9.15701665 10.6419732,9.15701665 9.89949494,9.89949494 C9.15701665,10.6419732 9.15701665,11.8457684 9.89949494,12.5882466 L17.1102382,19.7989899 L9.89949494,27.0097331 C9.15701665,27.7522114 9.15701665,28.9560065 9.89949494,29.6984848 C10.6419732,30.4409631 11.8457684,30.4409631 12.5882466,29.6984848 L19.7989899,22.4877416 L27.0097331,29.6984848 C27.7522114,30.4409631 28.9560065,30.4409631 29.6984848,29.6984848 C30.4409631,28.9560065 30.4409631,27.7522114 29.6984848,27.0097331 L22.4877416,19.7989899 L29.6984848,12.5882466 C30.4409631,11.8457684 30.4409631,10.6419732 29.6984848,9.89949494 C28.9560065,9.15701665 27.7522114,9.15701665 27.0097331,9.89949494 L19.7989899,17.1102382 Z" id="Combined-Shape"></path>
        </g>
    </g>
</svg>