<?xml version="1.0" encoding="UTF-8"?>
<svg width="17px" height="10px" viewBox="0 0 17 10" version="1.1" xmlns="http://www.w3.org/2000/svg" xmlns:xlink="http://www.w3.org/1999/xlink">
    <!-- Generator: Sketch 44.1 (41455) - http://www.bohemiancoding.com/sketch -->
    <title>sprite-select-arrow</title>
    <desc>Created with Sketch.</desc>
    <defs></defs>
    <g id="Symbols" stroke="none" stroke-width="1" fill="none" fill-rule="evenodd">
        <g id="sprite-select-arrow" fill="#FFFFFF">
            <path d="M0.398854418,0.615214713 C-0.0521017943,1.06617093 -0.0521017943,1.79731541 0.398854418,2.24827162 L7.69061361,9.54003081 C8.14156982,9.99098702 8.8727143,9.99098702 9.32367051,9.54003081 C9.77462672,9.08907459 9.77462672,8.35793011 9.32367051,7.9069739 L2.03191132,0.615214713 C1.58095511,0.164258501 0.84981063,0.164258501 0.398854418,0.615214713 Z" id="Combined-Shape-Copy"></path>
            <path d="M16.5159782,0.615214713 C16.9669344,1.06617093 16.9669344,1.79731541 16.5159782,2.24827162 L9.22421902,9.54003081 C8.7732628,9.99098702 8.04211832,9.99098702 7.59116211,9.54003081 C7.1402059,9.08907459 7.1402059,8.35793011 7.59116211,7.9069739 L14.8829213,0.615214713 C15.3338775,0.164258501 16.065022,0.164258501 16.5159782,0.615214713 Z" id="Combined-Shape-Copy"></path>
        </g>
    </g>
</svg>