<svg xmlns="http://www.w3.org/2000/svg" viewBox="0 0 15 31">
            <path fill="#FFF"
                  d="M15,8.5l0,17.12a6,6,0,0,1-1.06,3.3A4.91,4.91,0,0,1,9.68,31a5,5,0,0,1-4.27-1.93,5.83,5.83,0,0,1-1-3.35l0-17.22a4,4,0,0,1,.93-2.91,3.21,3.21,0,0,1,2.35-.84c.88,0,2.93.36,2.94,3.76V25.65a.71.71,0,0,1-1.43,0V8.5C9.18,6.16,8,6.16,7.67,6.16a1.85,1.85,0,0,0-1.34.43,2.77,2.77,0,0,0-.51,1.91l0,17.22a4.4,4.4,0,0,0,.77,2.52,3.63,3.63,0,0,0,3.12,1.35,3.52,3.52,0,0,0,3.06-1.47,4.63,4.63,0,0,0,.8-2.49l0-17.13c0-2.64-.8-7.08-6.14-7.08-5,0-6,3.85-6,7.08l0,14.19a.71.71,0,0,1-1.43,0L0,8.49C0,3.1,2.71,0,7.43,0S15,3.18,15,8.5Z"/>
</svg>